<svg width="24" height="24" viewBox="0 0 24 24" fill="none" xmlns="http://www.w3.org/2000/svg">
<path d="M16.773 8.28769L8.28777 16.773C7.99785 17.0629 7.51702 17.0629 7.22711 16.773C6.93719 16.4831 6.93719 16.0022 7.22711 15.7123L15.7124 7.22703C16.0023 6.93712 16.4831 6.93712 16.773 7.22703C17.063 7.51695 17.063 7.99778 16.773 8.28769Z" fill="white" fill-opacity="0.87"/>
<path d="M16.773 16.773C16.4831 17.0629 16.0023 17.0629 15.7124 16.773L7.22711 8.28768C6.93719 7.99777 6.93719 7.51694 7.22711 7.22702C7.51702 6.93711 7.99785 6.93711 8.28777 7.22702L16.773 15.7123C17.063 16.0022 17.063 16.4831 16.773 16.773Z" fill="white" fill-opacity="0.87"/>
</svg>
