<svg width="24" height="24" viewBox="0 0 24 24" fill="none" xmlns="http://www.w3.org/2000/svg">
<path d="M9.99008 22.7501C9.79008 22.7501 9.63008 22.7101 9.51008 22.6601C9.11008 22.5101 8.43008 22.0201 8.43008 20.4701V14.0201H6.09008C4.75008 14.0201 4.27008 13.3901 4.10008 13.0201C3.93008 12.6401 3.78008 11.8701 4.66008 10.8601L12.2301 2.26013C13.2501 1.10013 14.0801 1.18013 14.4801 1.33013C14.8801 1.48013 15.5601 1.97013 15.5601 3.52013V9.97013H17.9001C19.2401 9.97013 19.7201 10.6001 19.8901 10.9701C20.0601 11.3501 20.2101 12.1201 19.3301 13.1301L11.7601 21.7301C11.0501 22.5401 10.4301 22.7501 9.99008 22.7501ZM13.9301 2.74013C13.9001 2.78013 13.6901 2.88013 13.3601 3.26013L5.79008 11.8601C5.51008 12.1801 5.47008 12.3801 5.47008 12.4201C5.49008 12.4301 5.67008 12.5301 6.09008 12.5301H9.18008C9.59008 12.5301 9.93008 12.8701 9.93008 13.2801V20.4801C9.93008 20.9801 10.0201 21.2001 10.0601 21.2601C10.0901 21.2201 10.3001 21.1201 10.6301 20.7401L18.2001 12.1401C18.4801 11.8201 18.5201 11.6201 18.5201 11.5801C18.5001 11.5701 18.3201 11.4701 17.9001 11.4701H14.8101C14.4001 11.4701 14.0601 11.1301 14.0601 10.7201V3.52013C14.0701 3.02013 13.9701 2.81013 13.9301 2.74013Z" fill="white" fill-opacity="0.87"/>
</svg>
