<svg width="22" height="20" viewBox="0 0 22 20" fill="none" xmlns="http://www.w3.org/2000/svg">
<path d="M19.04 4.81994L13.28 0.789938C11.71 -0.310062 9.29999 -0.250062 7.78999 0.919938L2.77999 4.82994C1.77999 5.60994 0.98999 7.20994 0.98999 8.46994V15.3699C0.98999 17.9199 3.05999 19.9999 5.60999 19.9999H16.39C18.94 19.9999 21.01 17.9299 21.01 15.3799V8.59994C21.01 7.24994 20.14 5.58994 19.04 4.81994ZM11.75 15.9999C11.75 16.4099 11.41 16.7499 11 16.7499C10.59 16.7499 10.25 16.4099 10.25 15.9999V12.9999C10.25 12.5899 10.59 12.2499 11 12.2499C11.41 12.2499 11.75 12.5899 11.75 12.9999V15.9999Z" fill="white" fill-opacity="0.87"/>
</svg>
