<svg width="213" height="278" viewBox="0 0 213 278" fill="none" xmlns="http://www.w3.org/2000/svg">
<path d="M102.772 178.615C135.628 178.615 162.263 151.928 162.263 119.007C162.263 86.0861 135.628 59.3984 102.772 59.3984C69.9158 59.3984 43.2808 86.0861 43.2808 119.007C43.2808 151.928 69.9158 178.615 102.772 178.615Z" fill="#FFC1C1"/>
<path d="M183.658 195.453H25.5903V191.874H183.658C183.743 191.874 183.827 191.891 183.905 191.923C183.983 191.956 184.055 192.003 184.115 192.064C184.174 192.124 184.222 192.195 184.255 192.274C184.287 192.352 184.304 192.436 184.304 192.521V194.806C184.304 194.978 184.236 195.142 184.115 195.264C183.993 195.385 183.829 195.453 183.658 195.453V195.453Z" fill="#425AC2"/>
<path d="M26.8827 192.534H25.5776V277.37H26.8827V192.534Z" fill="#425AC2"/>
<path d="M183.658 192.534H183.645C183.288 192.534 182.999 192.824 182.999 193.181V276.723C182.999 277.08 183.288 277.37 183.645 277.37H183.658C184.015 277.37 184.304 277.08 184.304 276.723V193.181C184.304 192.824 184.015 192.534 183.658 192.534Z" fill="#425AC2"/>
<path d="M91.9631 53.6652C91.5431 54.0846 90.9743 54.3201 90.3813 54.3201C89.7883 54.3201 89.2194 54.0846 88.7994 53.6652V53.6652C88.3808 53.2443 88.1458 52.6743 88.1458 52.0802C88.1458 51.486 88.3808 50.9161 88.7994 50.4952L92.5695 46.7309C92.7746 46.5204 93.0196 46.3532 93.2901 46.239C93.5606 46.1248 93.8512 46.0659 94.1448 46.0659C94.4383 46.0659 94.7289 46.1248 94.9995 46.239C95.27 46.3532 95.515 46.5204 95.72 46.7309C95.9301 46.9363 96.097 47.1818 96.211 47.4529C96.325 47.7239 96.3837 48.0151 96.3837 48.3093C96.3837 48.6034 96.325 48.8945 96.211 49.1656C96.097 49.4367 95.9301 49.6822 95.72 49.8877L91.9631 53.6652Z" fill="#8EA8DD"/>
<path d="M118.631 53.6652C119.051 54.0847 119.62 54.3202 120.213 54.3202C120.806 54.3202 121.375 54.0847 121.795 53.6652V53.6652C122.213 53.2444 122.448 52.6744 122.448 52.0802C122.448 51.4861 122.213 50.9162 121.795 50.4953L118.025 46.731C117.819 46.5201 117.572 46.3526 117.301 46.2382C117.029 46.1239 116.737 46.0649 116.443 46.0649C116.148 46.0649 115.857 46.1239 115.585 46.2382C115.313 46.3526 115.067 46.5201 114.861 46.731V46.731C114.443 47.1496 114.208 47.7173 114.208 48.3093C114.208 48.9013 114.443 49.4691 114.861 49.8877L118.631 53.6652Z" fill="#8EA8DD"/>
<path d="M94.5334 11.1873C93.8847 10.2231 93.536 9.08773 93.5315 7.9249C93.5315 3.5662 98.633 0 104.895 0C111.156 0 116.258 3.53979 116.258 7.9249C116.252 8.99659 115.956 10.0466 115.401 10.9628L113.727 9.97217C114.107 9.35685 114.312 8.6488 114.32 7.9249C114.32 4.6889 110.009 1.96802 104.895 1.96802C99.7798 1.96802 95.4693 4.6889 95.4693 7.9249C95.4779 8.71343 95.7212 9.48144 96.1679 10.1307L94.5334 11.1873Z" fill="#A4B8EA"/>
<path d="M116.158 9.64339L112.3 15.6689L120.033 20.6397L123.891 14.6142L116.158 9.64339Z" fill="#FFC1C1"/>
<path d="M112.87 11.0291C113.044 10.6615 113.247 10.3082 113.476 9.97243C114.556 8.50643 116.167 7.52332 117.963 7.23419C119.758 6.94507 121.595 7.37301 123.08 8.42611C124.564 9.4792 125.577 11.0735 125.901 12.8665C126.225 14.6596 125.834 16.5085 124.813 18.0162C124.578 18.3481 124.313 18.6577 124.022 18.9408L112.87 11.0291Z" fill="#FE958E"/>
<path d="M93.7108 9.99161L85.9773 14.9624L89.8351 20.988L97.5686 16.0172L93.7108 9.99161Z" fill="#FFC1C1"/>
<path d="M120.045 48.2091C128.293 39.9458 128.293 26.5484 120.045 18.2851C111.798 10.0218 98.4274 10.0218 90.1804 18.2851C81.9333 26.5484 81.9333 39.9458 90.1804 48.2091C98.4274 56.4724 111.798 56.4724 120.045 48.2091Z" fill="#FE958E"/>
<path d="M109.177 50.3541C118.612 48.1089 124.444 38.6252 122.203 29.1717C119.962 19.7181 110.497 13.8746 101.062 16.1198C91.6273 18.365 85.7953 27.8487 88.036 37.3022C90.2768 46.7557 99.7418 52.5993 109.177 50.3541Z" fill="#FEE2E3"/>
<path d="M105.778 17.9237C105.78 18.0549 105.744 18.1838 105.673 18.2941C105.602 18.4045 105.5 18.4912 105.38 18.5432C105.26 18.5952 105.127 18.6102 104.998 18.5862C104.87 18.5622 104.751 18.5004 104.658 18.4086C104.564 18.3168 104.5 18.1991 104.473 18.0707C104.447 17.9422 104.459 17.8088 104.509 17.6873C104.558 17.5659 104.643 17.4619 104.751 17.3888C104.86 17.3156 104.988 17.2765 105.119 17.2765C105.205 17.2747 105.29 17.2902 105.37 17.3219C105.45 17.3537 105.523 17.4011 105.584 17.4613C105.645 17.5216 105.694 17.5936 105.727 17.673C105.761 17.7523 105.778 17.8376 105.778 17.9237V17.9237Z" fill="#425AC2"/>
<path d="M98.0399 19.6536C98.0845 19.7279 98.1138 19.8103 98.126 19.8961C98.1382 19.9819 98.1331 20.0693 98.1109 20.153C98.0888 20.2368 98.0501 20.3152 97.9972 20.3837C97.9442 20.4522 97.8781 20.5094 97.8027 20.5518C97.6533 20.6343 97.4779 20.6557 97.3132 20.6114C97.1485 20.567 97.0074 20.4605 96.9194 20.3141C96.837 20.1644 96.8157 19.9887 96.86 19.8236C96.9042 19.6586 97.0106 19.5172 97.1567 19.4291C97.3036 19.342 97.4791 19.3167 97.6446 19.3587C97.8101 19.4008 97.9522 19.5068 98.0399 19.6536Z" fill="#425AC2"/>
<path d="M92.2135 25.0163C92.2885 25.0574 92.3544 25.1133 92.4072 25.1806C92.46 25.2479 92.4987 25.3252 92.5208 25.4079C92.543 25.4906 92.5483 25.577 92.5362 25.6618C92.5242 25.7465 92.4951 25.828 92.4508 25.9012C92.3629 26.0476 92.2217 26.1542 92.0571 26.1986C91.8924 26.2429 91.7169 26.2215 91.5676 26.139C91.494 26.0965 91.4295 26.0399 91.3778 25.9724C91.326 25.9049 91.2881 25.8279 91.266 25.7457C91.244 25.6636 91.2383 25.5778 91.2494 25.4935C91.2604 25.4091 91.2879 25.3277 91.3303 25.254C91.3727 25.1803 91.4292 25.1157 91.4965 25.0638C91.5639 25.012 91.6407 24.974 91.7227 24.9519C91.8048 24.9298 91.8903 24.9241 91.9745 24.9352C92.0587 24.9462 92.1399 24.9738 92.2135 25.0163V25.0163Z" fill="#425AC2"/>
<path d="M89.841 32.5845C89.9687 32.5845 90.0936 32.6224 90.1998 32.6935C90.306 32.7647 90.3888 32.8657 90.4377 32.984C90.4866 33.1023 90.4994 33.2324 90.4745 33.3579C90.4496 33.4835 90.388 33.5988 90.2977 33.6893C90.2074 33.7798 90.0923 33.8415 89.967 33.8665C89.8417 33.8914 89.7118 33.8786 89.5938 33.8296C89.4757 33.7806 89.3749 33.6977 89.3039 33.5912C89.233 33.4848 89.1951 33.3597 89.1951 33.2317C89.1951 33.06 89.2631 32.8954 89.3842 32.774C89.5054 32.6527 89.6697 32.5845 89.841 32.5845Z" fill="#425AC2"/>
<path d="M91.568 40.3244C91.7174 40.2418 91.8928 40.2205 92.0575 40.2648C92.2222 40.3091 92.3633 40.4157 92.4513 40.5621C92.5149 40.6731 92.5443 40.8004 92.5357 40.928C92.5272 41.0557 92.4811 41.1779 92.4032 41.2793C92.3254 41.3807 92.2193 41.4568 92.0983 41.4978C91.9774 41.5388 91.847 41.543 91.7237 41.5098C91.6004 41.4766 91.4896 41.4075 91.4055 41.3113C91.3213 41.215 91.2675 41.096 91.2509 40.9691C91.2342 40.8423 91.2555 40.7134 91.3119 40.5986C91.3684 40.4838 91.4575 40.3884 91.568 40.3244V40.3244Z" fill="#425AC2"/>
<path d="M96.9194 46.1627C97.0074 46.0163 97.1485 45.9097 97.3132 45.8654C97.4779 45.8211 97.6533 45.8424 97.8027 45.925C97.953 46.0108 98.0631 46.1529 98.1089 46.3201C98.1546 46.4873 98.1322 46.6659 98.0465 46.8165C97.9609 46.9671 97.819 47.0775 97.6521 47.1233C97.4853 47.1692 97.307 47.1467 97.1567 47.0608C97.0096 46.9703 96.903 46.8265 96.8588 46.6593C96.8146 46.4921 96.8363 46.3143 96.9194 46.1627Z" fill="#425AC2"/>
<path d="M104.473 48.5402C104.47 48.4085 104.507 48.279 104.578 48.1684C104.65 48.0578 104.752 47.9711 104.873 47.9195C104.994 47.8679 105.128 47.8537 105.257 47.8788C105.386 47.9038 105.505 47.967 105.598 48.0601C105.691 48.1533 105.754 48.2721 105.779 48.4015C105.804 48.5308 105.789 48.6647 105.738 48.7859C105.686 48.907 105.6 49.01 105.49 49.0816C105.379 49.1531 105.25 49.19 105.118 49.1874C104.947 49.1874 104.783 49.1192 104.662 48.9978C104.541 48.8765 104.473 48.7118 104.473 48.5402Z" fill="#425AC2"/>
<path d="M112.21 46.8231C112.166 46.7489 112.136 46.6664 112.124 46.5806C112.112 46.4948 112.117 46.4075 112.139 46.3237C112.161 46.24 112.2 46.1615 112.253 46.093C112.306 46.0245 112.372 45.9674 112.447 45.925C112.597 45.8424 112.772 45.8211 112.937 45.8654C113.102 45.9097 113.243 46.0163 113.331 46.1627C113.414 46.3143 113.435 46.4921 113.391 46.6593C113.347 46.8265 113.24 46.9703 113.093 47.0608C112.944 47.1434 112.769 47.1648 112.604 47.1204C112.439 47.0761 112.298 46.9695 112.21 46.8231V46.8231Z" fill="#425AC2"/>
<path d="M118.038 41.4476C117.963 41.4065 117.897 41.3506 117.844 41.2833C117.791 41.2159 117.753 41.1386 117.731 41.0559C117.708 40.9732 117.703 40.8869 117.715 40.8021C117.727 40.7173 117.756 40.6358 117.801 40.5626C117.843 40.4889 117.9 40.4243 117.967 40.3724C118.034 40.3206 118.111 40.2826 118.193 40.2605C118.275 40.2384 118.361 40.2327 118.445 40.2438C118.529 40.2548 118.61 40.2824 118.684 40.3249C118.757 40.3674 118.822 40.424 118.874 40.4914C118.925 40.5589 118.963 40.6359 118.985 40.7181C119.008 40.8003 119.013 40.886 119.002 40.9704C118.991 41.0547 118.964 41.1361 118.921 41.2098C118.88 41.285 118.824 41.3509 118.757 41.4039C118.69 41.4568 118.613 41.4955 118.53 41.5178C118.448 41.54 118.362 41.5452 118.277 41.5332C118.192 41.5211 118.111 41.492 118.038 41.4476V41.4476Z" fill="#425AC2"/>
<path d="M120.411 33.8789C120.768 33.8789 121.057 33.5891 121.057 33.2317C121.057 32.8742 120.768 32.5845 120.411 32.5845C120.054 32.5845 119.765 32.8742 119.765 33.2317C119.765 33.5891 120.054 33.8789 120.411 33.8789Z" fill="#425AC2"/>
<path d="M118.684 26.139C118.534 26.2215 118.359 26.2429 118.194 26.1986C118.029 26.1542 117.888 26.0476 117.8 25.9012C117.715 25.7523 117.692 25.5755 117.736 25.4095C117.781 25.2436 117.889 25.1021 118.038 25.0163C118.186 24.9304 118.363 24.9073 118.528 24.9519C118.694 24.9965 118.835 25.1052 118.921 25.254C118.963 25.3277 118.991 25.4091 119.002 25.4935C119.013 25.5779 119.007 25.6636 118.985 25.7458C118.963 25.828 118.925 25.9051 118.874 25.9725C118.822 26.04 118.757 26.0966 118.684 26.139Z" fill="#425AC2"/>
<path d="M113.331 20.3014C113.243 20.4478 113.102 20.5543 112.937 20.5987C112.772 20.643 112.597 20.6217 112.447 20.5391C112.372 20.4967 112.306 20.4396 112.253 20.3711C112.2 20.3026 112.161 20.2241 112.139 20.1403C112.117 20.0566 112.112 19.9692 112.124 19.8834C112.136 19.7977 112.166 19.7152 112.21 19.641C112.298 19.4942 112.44 19.3881 112.606 19.346C112.771 19.304 112.946 19.3293 113.093 19.4164C113.239 19.5045 113.346 19.6459 113.39 19.8109C113.434 19.976 113.413 20.1518 113.331 20.3014Z" fill="#425AC2"/>
<path d="M98.0711 28.2669L97.4409 29.457L104.579 33.2519L105.209 32.0618L98.0711 28.2669Z" fill="#425AC2"/>
<path d="M115.756 26.5865L105.113 32.4663L105.596 33.3454L116.24 27.4656L115.756 26.5865Z" fill="#425AC2"/>
<path d="M108.204 33.2321C108.22 33.8449 108.053 34.4484 107.725 34.9661C107.398 35.4837 106.924 35.8921 106.364 36.1393C105.805 36.3865 105.184 36.4614 104.582 36.3544C103.98 36.2474 103.423 35.9634 102.982 35.5385C102.541 35.1135 102.236 34.5669 102.106 33.9679C101.976 33.369 102.027 32.7449 102.252 32.1749C102.477 31.6049 102.865 31.1148 103.369 30.7668C103.873 30.4188 104.468 30.2287 105.08 30.2207C105.892 30.2065 106.677 30.5155 107.263 31.0799C107.848 31.6443 108.187 32.4182 108.204 33.2321Z" fill="#FE958E"/>
<path d="M97.0248 11.3193C96.854 10.9473 96.6464 10.5933 96.4053 10.2627C95.3407 8.7581 93.7232 7.73892 91.9087 7.42929C90.0941 7.11967 88.2311 7.54496 86.7295 8.61163C85.2279 9.6783 84.2108 11.299 83.9018 13.1171C83.5927 14.9352 84.0172 16.8019 85.0817 18.3064C85.316 18.6349 85.5761 18.944 85.8595 19.231L97.0248 11.3193Z" fill="#FE958E"/>
<path d="M3.063 90.7275C2.79227 90.8393 2.5021 90.8962 2.20929 90.8948C1.91648 90.8935 1.62684 90.834 1.35714 90.7197C1.08744 90.6055 0.843039 90.4388 0.638052 90.2293C0.433065 90.0198 0.271575 89.7716 0.16293 89.4992V89.4992C-0.0586812 88.9509 -0.0540605 88.3369 0.175803 87.7921C0.405667 87.2473 0.841967 86.8161 1.38886 86.5934L6.319 84.5725C6.86835 84.3536 7.48156 84.3597 8.02649 84.5894C8.57143 84.8192 9.00444 85.2542 9.23225 85.8009C9.45435 86.351 9.45008 86.9669 9.22036 87.5139C8.99064 88.0608 8.55416 88.4944 8.00632 88.7199L3.063 90.7275Z" fill="#8EA8DD"/>
<path d="M27.6473 101.109C27.7573 101.382 27.9201 101.63 28.1263 101.84C28.3326 102.05 28.5781 102.216 28.8489 102.33C29.1196 102.445 29.4103 102.504 29.704 102.505C29.9978 102.506 30.2889 102.449 30.5606 102.337V102.337C31.1084 102.112 31.5449 101.678 31.7746 101.131C32.0043 100.584 32.0086 99.9685 31.7865 99.4184L29.7696 94.4785C29.5473 93.9305 29.117 93.4934 28.5733 93.2631C28.0295 93.0327 27.4167 93.0281 26.8696 93.2502V93.2502C26.5972 93.3604 26.3492 93.5235 26.14 93.7302C25.9308 93.9368 25.7644 94.1828 25.6505 94.4541C25.5365 94.7254 25.4773 95.0166 25.4761 95.311C25.4749 95.6053 25.5319 95.897 25.6436 96.1692L27.6473 101.109Z" fill="#8EA8DD"/>
<path d="M21.9121 52.5951C21.6837 51.4504 21.8031 50.2634 22.2548 49.1874C23.9421 45.2249 30.0059 43.9041 35.7797 46.3344C41.5535 48.7647 44.8886 54.0216 43.2013 58.0369C42.7801 59.0259 42.0962 59.8802 41.224 60.5068L40.0639 58.935C40.6445 58.5145 41.1001 57.9438 41.3821 57.284C42.7004 54.3121 39.708 50.112 35.002 48.1307C30.2959 46.1495 25.2603 46.9816 24.0212 49.9535C23.7205 50.6803 23.6424 51.4803 23.7971 52.2517L21.9121 52.5951Z" fill="#A4B8EA"/>
<path d="M42.4191 59.6285L36.5288 63.6802L41.729 71.2699L47.6193 67.2182L42.4191 59.6285Z" fill="#425AC2"/>
<path d="M38.8528 59.5817C39.155 59.3061 39.4815 59.0585 39.8283 58.842C40.6463 58.323 41.5637 57.981 42.5214 57.8381C43.4791 57.6952 44.456 57.7545 45.3895 58.0121C46.323 58.2698 47.1925 58.7201 47.9421 59.3342C48.6917 59.9483 49.3049 60.7127 49.7423 61.5782C50.1797 62.4437 50.4318 63.3913 50.4822 64.3601C50.5327 65.329 50.3805 66.2978 50.0353 67.2042C49.6901 68.1107 49.1597 68.9348 48.478 69.6237C47.7962 70.3127 46.9783 70.8512 46.0766 71.2048L38.8528 59.5817Z" fill="#FFC1C1"/>
<path d="M21.63 51.1406L12.5771 52.7139L13.7982 59.7674L22.851 58.1941L21.63 51.1406Z" fill="#425AC2"/>
<path d="M42.5827 85.2445C40.9566 89.0896 38.23 92.3657 34.7471 94.6594C31.2642 96.953 27.1812 98.1614 23.0135 98.1318C18.8458 98.1023 14.7803 96.8361 11.3301 94.4933C7.87999 92.1505 5.19995 88.836 3.62832 84.9683C2.05669 81.1005 1.66394 76.8529 2.49966 72.7617C3.33538 68.6705 5.36211 64.9191 8.32397 61.9811C11.2858 59.0431 15.05 57.0501 19.1414 56.2539C23.2327 55.4577 27.4678 55.8939 31.312 57.5074C33.8734 58.5825 36.1976 60.1538 38.1514 62.1312C40.1052 64.1086 41.6501 66.4532 42.6972 69.0303C43.7444 71.6074 44.2734 74.3664 44.2537 77.1488C44.2341 79.9313 43.6662 82.6825 42.5827 85.2445Z" fill="#FFC1C1"/>
<path d="M29.6968 93.3492C38.6855 89.703 43.0224 79.4461 39.3834 70.4397C35.7444 61.4332 25.5076 57.0878 16.5189 60.734C7.53021 64.3801 3.19339 74.6371 6.83236 83.6435C10.4713 92.65 20.7081 96.9953 29.6968 93.3492Z" fill="#FEE2E3"/>
<path d="M29.6506 63.1618C29.6178 63.2407 29.5697 63.3124 29.5091 63.3727C29.4486 63.433 29.3768 63.4807 29.2979 63.5132C29.2189 63.5458 29.1343 63.5623 29.049 63.5621C28.9636 63.5619 28.8792 63.5448 28.8004 63.5118C28.7216 63.4788 28.6501 63.4307 28.5899 63.37C28.5298 63.3094 28.4821 63.2374 28.4496 63.1583C28.4172 63.0792 28.4006 62.9945 28.4009 62.909C28.4011 62.8235 28.4182 62.7388 28.4511 62.6599C28.5206 62.5017 28.6493 62.3771 28.8095 62.3129C28.9697 62.2487 29.1487 62.2499 29.3079 62.3165C29.4649 62.3834 29.589 62.5099 29.6532 62.6683C29.7175 62.8267 29.7165 63.0041 29.6506 63.1618Z" fill="#425AC2"/>
<path d="M21.8595 61.7483C21.8705 61.8334 21.8646 61.9199 21.842 62.0026C21.8194 62.0854 21.7806 62.1629 21.7278 62.2305C21.6751 62.2981 21.6095 62.3545 21.5347 62.3964C21.46 62.4384 21.3778 62.465 21.2927 62.4748C21.1231 62.4973 20.9516 62.4516 20.8157 62.3476C20.6798 62.2436 20.5906 62.0898 20.5676 61.92C20.5566 61.835 20.5626 61.7485 20.5852 61.6657C20.6078 61.583 20.6466 61.5056 20.6993 61.438C20.7521 61.3704 20.8177 61.3139 20.8924 61.272C20.9671 61.23 21.0494 61.2034 21.1345 61.1936C21.304 61.1711 21.4755 61.2168 21.6114 61.3208C21.7474 61.4248 21.8366 61.5785 21.8595 61.7483Z" fill="#425AC2"/>
<path d="M14.3995 64.4303C14.4535 64.4971 14.4934 64.5742 14.5167 64.6569C14.5401 64.7397 14.5464 64.8263 14.5353 64.9115C14.5242 64.9968 14.4959 65.0789 14.4522 65.1528C14.4084 65.2268 14.3501 65.291 14.2808 65.3417C14.2126 65.3934 14.1349 65.431 14.0521 65.4523C13.9693 65.4737 13.8831 65.4783 13.7985 65.466C13.7139 65.4538 13.6325 65.4248 13.5592 65.3807C13.4859 65.3367 13.422 65.2785 13.3712 65.2096C13.32 65.1424 13.2827 65.0655 13.2616 64.9836C13.2405 64.9017 13.2359 64.8164 13.2482 64.7327C13.2605 64.649 13.2894 64.5686 13.3331 64.4963C13.3769 64.4239 13.4347 64.3611 13.5031 64.3115C13.5686 64.2576 13.6445 64.2179 13.726 64.1946C13.8075 64.1714 13.8929 64.1651 13.977 64.1763C14.061 64.1874 14.1418 64.2157 14.2145 64.2594C14.2872 64.3031 14.3501 64.3613 14.3995 64.4303V64.4303Z" fill="#425AC2"/>
<path d="M9.28444 70.4799C9.44235 70.5496 9.56671 70.6785 9.63079 70.839C9.69487 70.9995 9.69356 71.1788 9.62717 71.3384C9.56032 71.4957 9.43408 71.6201 9.27601 71.6844C9.11795 71.7488 8.94089 71.7478 8.78351 71.6818C8.70464 71.6501 8.63295 71.6028 8.57273 71.5427C8.51251 71.4826 8.46498 71.411 8.433 71.3321C8.40101 71.2532 8.38522 71.1687 8.38655 71.0835C8.38789 70.9984 8.40633 70.9144 8.44078 70.8365C8.47264 70.7575 8.51977 70.6855 8.57947 70.6247C8.63917 70.564 8.71025 70.5157 8.78864 70.4825C8.86703 70.4494 8.95118 70.4321 9.03627 70.4316C9.12135 70.4312 9.2057 70.4476 9.28444 70.4799V70.4799Z" fill="#425AC2"/>
<path d="M7.87487 78.2847C7.9598 78.2736 8.04607 78.2796 8.12868 78.3022C8.21128 78.3249 8.28856 78.3637 8.35603 78.4166C8.4235 78.4694 8.4798 78.5352 8.52167 78.6101C8.56354 78.6849 8.59012 78.7674 8.5999 78.8526C8.61442 78.9794 8.59125 79.1076 8.53326 79.2212C8.47527 79.3348 8.38505 79.4287 8.27396 79.4911C8.16288 79.5535 8.03587 79.5815 7.90891 79.5718C7.78194 79.562 7.66066 79.5149 7.56034 79.4363C7.46002 79.3578 7.38512 79.2512 7.34506 79.1301C7.30499 79.009 7.30155 78.8787 7.33516 78.7557C7.36877 78.6326 7.43795 78.5222 7.53397 78.4384C7.63 78.3546 7.7486 78.3012 7.87487 78.2847V78.2847Z" fill="#425AC2"/>
<path d="M10.5497 85.7615C10.6166 85.7037 10.6946 85.6603 10.7788 85.6339C10.8631 85.6075 10.9519 85.5988 11.0397 85.6081C11.1275 85.6175 11.2125 85.6448 11.2893 85.6883C11.3662 85.7319 11.4333 85.7907 11.4866 85.8613C11.5398 85.9318 11.5781 86.0126 11.599 86.0985C11.6199 86.1845 11.623 86.2738 11.6081 86.361C11.5932 86.4482 11.5606 86.5314 11.5123 86.6055C11.464 86.6796 11.4011 86.7429 11.3275 86.7917C11.1901 86.8941 11.0184 86.939 10.8486 86.9168C10.6789 86.8946 10.5244 86.8071 10.4179 86.6728C10.3663 86.6045 10.3288 86.5266 10.3075 86.4437C10.2862 86.3607 10.2815 86.2743 10.2938 86.1896C10.306 86.1048 10.335 86.0233 10.3789 85.9498C10.4228 85.8763 10.4809 85.8123 10.5497 85.7615Z" fill="#425AC2"/>
<path d="M16.5873 90.8856C16.619 90.8066 16.6662 90.7348 16.7262 90.6744C16.7861 90.6141 16.8576 90.5664 16.9364 90.5344C17.0151 90.5023 17.0995 90.4865 17.1845 90.4879C17.2694 90.4892 17.3533 90.5077 17.431 90.5422C17.549 90.5917 17.6496 90.6751 17.7202 90.782C17.7908 90.8889 17.8282 91.0144 17.8275 91.1426C17.8268 91.2708 17.7882 91.3959 17.7165 91.502C17.6447 91.6082 17.5432 91.6906 17.4247 91.7388C17.3062 91.7871 17.176 91.7989 17.0508 91.773C16.9255 91.747 16.8107 91.6844 16.721 91.593C16.6313 91.5016 16.5707 91.3856 16.5469 91.2597C16.5231 91.1337 16.5372 91.0035 16.5873 90.8856V90.8856Z" fill="#425AC2"/>
<path d="M24.3785 92.2992C24.364 92.1724 24.3872 92.0442 24.4451 91.9306C24.5031 91.817 24.5933 91.7231 24.7044 91.6607C24.8155 91.5983 24.9425 91.5703 25.0695 91.58C25.1964 91.5897 25.3177 91.6369 25.418 91.7154C25.5184 91.794 25.5933 91.9006 25.6333 92.0217C25.6734 92.1428 25.6768 92.2731 25.6432 92.3961C25.6096 92.5192 25.5404 92.6296 25.4444 92.7134C25.3484 92.7972 25.2298 92.8506 25.1035 92.8671C25.0186 92.8782 24.9323 92.8722 24.8497 92.8496C24.7671 92.8269 24.6898 92.788 24.6224 92.7352C24.5549 92.6823 24.4986 92.6165 24.4567 92.5417C24.4148 92.4668 24.3883 92.3844 24.3785 92.2992V92.2992Z" fill="#425AC2"/>
<path d="M31.8267 89.6577C31.7511 89.555 31.7075 89.4321 31.7014 89.3046C31.6953 89.1771 31.727 89.0506 31.7925 88.9411C31.858 88.8316 31.9543 88.7439 32.0694 88.6891C32.1845 88.6343 32.3132 88.6148 32.4393 88.6332C32.5654 88.6515 32.6832 88.7067 32.7781 88.792C32.8729 88.8773 32.9404 88.9887 32.9722 89.1124C33.0039 89.236 32.9985 89.3663 32.9565 89.4868C32.9145 89.6074 32.8379 89.7128 32.7363 89.7898C32.5974 89.8908 32.4246 89.9335 32.2547 89.9088C32.0849 89.8842 31.9313 89.7941 31.8267 89.6577Z" fill="#425AC2"/>
<path d="M36.9537 83.5688C36.7966 83.5016 36.6717 83.3758 36.6053 83.2182C36.5389 83.0605 36.5362 82.8831 36.5978 82.7235C36.6675 82.5651 36.7954 82.4397 36.9549 82.3733C37.1145 82.3069 37.2934 82.3046 37.4546 82.3669C37.6125 82.4365 37.7369 82.5654 37.8009 82.726C37.865 82.8865 37.8637 83.0658 37.7973 83.2254C37.7657 83.3044 37.7184 83.3762 37.6585 83.4365C37.5985 83.4969 37.527 83.5445 37.4483 83.5766C37.3695 83.6086 37.2852 83.6244 37.2002 83.6231C37.1152 83.6218 37.0314 83.6033 36.9537 83.5688V83.5688Z" fill="#425AC2"/>
<path d="M38.3645 75.7631C38.2796 75.7742 38.1933 75.7682 38.1107 75.7456C38.0281 75.7229 37.9508 75.684 37.8833 75.6312C37.8159 75.5783 37.7596 75.5126 37.7177 75.4377C37.6758 75.3629 37.6492 75.2804 37.6395 75.1951C37.6249 75.0684 37.6481 74.9402 37.7061 74.8266C37.7641 74.713 37.8543 74.6191 37.9654 74.5567C38.0765 74.4944 38.2035 74.4663 38.3305 74.476C38.4575 74.4857 38.5787 74.5329 38.679 74.6114C38.7793 74.69 38.8542 74.7966 38.8943 74.9177C38.9344 75.0388 38.9378 75.1691 38.9042 75.2921C38.8706 75.4152 38.8014 75.5256 38.7054 75.6094C38.6094 75.6932 38.4908 75.7467 38.3645 75.7631Z" fill="#425AC2"/>
<path d="M35.6882 68.2998C35.5501 68.4032 35.3767 68.4473 35.2061 68.4226C35.0355 68.3978 34.8817 68.3062 34.7786 68.1678C34.6755 68.0294 34.6314 67.8557 34.6561 67.6847C34.6809 67.5138 34.7723 67.3598 34.9104 67.2564C35.0485 67.1531 35.2219 67.1089 35.3925 67.1337C35.5631 67.1585 35.7169 67.2501 35.82 67.3885C35.9231 67.5269 35.9672 67.7006 35.9425 67.8715C35.9177 68.0424 35.8263 68.1965 35.6882 68.2998V68.2998Z" fill="#425AC2"/>
<path d="M18.5262 69.7733L17.4844 70.625L22.5927 76.8985L23.6345 76.0469L18.5262 69.7733Z" fill="#425AC2"/>
<path d="M35.4656 75.0679L23.3789 76.3472L23.4841 77.3454L35.5709 76.0661L35.4656 75.0679Z" fill="#425AC2"/>
<path d="M25.9869 78.219C25.7629 78.7927 25.373 79.2862 24.8672 79.6362C24.3614 79.9863 23.7627 80.1769 23.148 80.1837C22.5333 80.1905 21.9306 80.013 21.4172 79.6742C20.9039 79.3353 20.5033 78.8505 20.2668 78.2819C20.0304 77.7133 19.9689 77.0869 20.0902 76.4831C20.2116 75.8793 20.5102 75.3255 20.9479 74.8929C21.3855 74.4604 21.9421 74.1686 22.5464 74.0553C23.1506 73.9419 23.7749 74.012 24.3391 74.2566C25.0725 74.5746 25.6541 75.1653 25.9615 75.9044C26.2689 76.6435 26.278 77.4733 25.9869 78.219Z" fill="#FE958E"/>
<path d="M24.1401 53.6786C24.1264 53.2738 24.0734 52.8712 23.9819 52.4767C23.7863 51.5851 23.4173 50.7409 22.8961 49.9922C22.3748 49.2436 21.7115 48.6051 20.944 48.1133C20.1765 47.6215 19.3199 47.2859 18.423 47.1258C17.5261 46.9657 16.6065 46.9842 15.7167 47.1802C14.8269 47.3762 13.9843 47.7459 13.2371 48.2681C12.4899 48.7904 11.8527 49.455 11.3618 50.224C10.871 50.993 10.5361 51.8514 10.3763 52.75C10.2166 53.6487 10.235 54.5701 10.4306 55.4617C10.5136 55.8651 10.6372 56.2589 10.7997 56.6372L24.1401 53.6786Z" fill="#FFC1C1"/>
<path d="M205.568 90.7276C205.839 90.8395 206.13 90.8966 206.424 90.8954C206.718 90.8942 207.008 90.8348 207.279 90.7207C207.55 90.6065 207.796 90.4398 208.002 90.2302C208.208 90.0206 208.371 89.7721 208.481 89.4992V89.4992C208.702 88.9509 208.698 88.337 208.468 87.7921C208.238 87.2473 207.802 86.8161 207.255 86.5934L202.325 84.5725C201.776 84.35 201.161 84.3543 200.615 84.5845C200.069 84.8147 199.636 85.252 199.411 85.8009V85.8009C199.3 86.0731 199.243 86.3648 199.244 86.6591C199.245 86.9535 199.304 87.2447 199.418 87.516C199.532 87.7873 199.699 88.0333 199.908 88.2399C200.117 88.4466 200.365 88.6097 200.637 88.7199L205.568 90.7276Z" fill="#8EA8DD"/>
<path d="M180.996 101.11C180.771 101.659 180.338 102.096 179.792 102.326C179.246 102.556 178.632 102.561 178.082 102.338V102.338C177.81 102.228 177.562 102.065 177.353 101.858C177.144 101.651 176.977 101.405 176.863 101.134C176.749 100.863 176.69 100.572 176.689 100.277C176.688 99.9829 176.745 99.6912 176.857 99.419L178.86 94.4791C179.085 93.9302 179.518 93.4929 180.064 93.2627C180.61 93.0325 181.224 93.0282 181.773 93.2508V93.2508C182.046 93.361 182.294 93.5241 182.503 93.7308C182.712 93.9374 182.879 94.1834 182.993 94.4547C183.106 94.726 183.166 95.0172 183.167 95.3116C183.168 95.6059 183.111 95.8976 182.999 96.1698L180.996 101.11Z" fill="#8EA8DD"/>
<path d="M186.729 52.5951C186.951 51.4501 186.832 50.265 186.387 49.1874C184.699 45.2249 178.635 43.9041 172.848 46.3344C167.062 48.7647 163.753 54.0216 165.44 58.0369C165.861 59.0259 166.545 59.8802 167.417 60.5068L168.564 58.935C167.984 58.5145 167.528 57.9438 167.246 57.284C165.994 54.3121 168.92 50.112 173.626 48.1307C178.332 46.1495 183.355 46.9816 184.607 49.9535C184.908 50.6803 184.986 51.4803 184.831 52.2517L186.729 52.5951Z" fill="#A4B8EA"/>
<path d="M166.204 59.6012L161.004 67.1909L166.894 71.2426L172.094 63.6529L166.204 59.6012Z" fill="#FE958E"/>
<path d="M169.79 59.5817C169.485 59.3092 169.159 59.0618 168.815 58.842C167.996 58.323 167.079 57.981 166.121 57.8381C165.164 57.6952 164.187 57.7545 163.253 58.0121C162.32 58.2698 161.45 58.7201 160.701 59.3342C159.951 59.9483 159.338 60.7127 158.901 61.5782C158.463 62.4437 158.211 63.3913 158.161 64.3601C158.11 65.329 158.262 66.2978 158.608 67.2042C158.953 68.1107 159.483 68.9348 160.165 69.6237C160.847 70.3127 161.665 70.8512 162.566 71.2048L169.79 59.5817Z" fill="#425AC2"/>
<path d="M188.202 48.5588L186.988 55.646L196.084 57.211L197.298 50.1238L188.202 48.5588Z" fill="#FE958E"/>
<path d="M193.416 96.6689C204.232 92.2969 209.463 79.9672 205.1 69.1298C200.736 58.2924 188.431 53.0512 177.615 57.4232C166.799 61.7952 161.568 74.1248 165.931 84.9622C170.295 95.7996 182.6 101.041 193.416 96.6689Z" fill="#425AC2"/>
<path d="M169.343 83.8581C170.692 87.0642 172.96 89.7974 175.86 91.7121C178.759 93.6267 182.161 94.6369 185.633 94.6149C189.106 94.5929 192.494 93.5397 195.369 91.5884C198.244 89.6371 200.477 86.8754 201.786 83.6525C203.095 80.4296 203.42 76.8902 202.722 73.4819C202.023 70.0736 200.331 66.9494 197.86 64.5044C195.389 62.0594 192.251 60.4034 188.841 59.7458C185.431 59.0882 181.902 59.4585 178.702 60.8099C176.577 61.7073 174.65 63.0154 173.029 64.6594C171.409 66.3035 170.127 68.2512 169.258 70.3915C168.389 72.5318 167.949 74.8227 167.964 77.1333C167.978 79.4439 168.447 81.729 169.343 83.8581V83.8581Z" fill="#FEE2E3"/>
<path d="M178.992 63.1622C179.059 63.3196 179.184 63.4448 179.342 63.5113C179.499 63.5778 179.676 63.5805 179.835 63.5188C179.914 63.4859 179.986 63.4377 180.046 63.3771C180.106 63.3164 180.154 63.2445 180.186 63.1654C180.219 63.0862 180.235 63.0015 180.235 62.916C180.235 62.8304 180.218 62.7458 180.185 62.6669C180.152 62.588 180.104 62.5163 180.043 62.456C179.983 62.3957 179.911 62.348 179.832 62.3155C179.753 62.283 179.668 62.2664 179.583 62.2666C179.498 62.2668 179.413 62.2839 179.334 62.3169C179.177 62.3839 179.053 62.5103 178.989 62.6687C178.925 62.8271 178.926 63.0045 178.992 63.1622Z" fill="#425AC2"/>
<path d="M186.809 61.7488C186.798 61.8339 186.804 61.9203 186.826 62.0031C186.849 62.0859 186.888 62.1633 186.94 62.2309C186.993 62.2985 187.059 62.3549 187.133 62.3969C187.208 62.4388 187.29 62.4655 187.375 62.4753C187.461 62.4902 187.549 62.4876 187.634 62.4676C187.719 62.4476 187.799 62.4105 187.869 62.3587C187.94 62.3068 187.999 62.2413 188.043 62.166C188.087 62.0907 188.116 62.0072 188.127 61.9205C188.138 61.8354 188.132 61.749 188.109 61.6662C188.087 61.5834 188.048 61.506 187.995 61.4384C187.942 61.3708 187.877 61.3144 187.802 61.2724C187.727 61.2305 187.645 61.2039 187.56 61.1941C187.474 61.1771 187.385 61.1782 187.299 61.1975C187.214 61.2167 187.133 61.2535 187.062 61.3057C186.992 61.3579 186.933 61.4242 186.889 61.5005C186.845 61.5768 186.818 61.6613 186.809 61.7488Z" fill="#425AC2"/>
<path d="M194.23 64.4295C194.127 64.5679 194.083 64.7416 194.108 64.9125C194.133 65.0835 194.224 65.2375 194.362 65.3409C194.5 65.4442 194.674 65.4883 194.844 65.4636C195.015 65.4388 195.169 65.3471 195.272 65.2088C195.375 65.0704 195.419 64.8967 195.394 64.7258C195.37 64.5548 195.278 64.4007 195.14 64.2974C195.072 64.2462 194.994 64.2091 194.911 64.188C194.828 64.167 194.742 64.1624 194.658 64.1747C194.487 64.1995 194.334 64.2911 194.23 64.4295V64.4295Z" fill="#425AC2"/>
<path d="M199.358 70.4799C199.198 70.5465 199.072 70.6736 199.007 70.8334C198.941 70.9931 198.942 71.1724 199.008 71.3318C199.075 71.4912 199.202 71.6176 199.361 71.6833C199.52 71.7489 199.699 71.7484 199.858 71.6818C199.937 71.6501 200.009 71.6028 200.069 71.5427C200.129 71.4826 200.177 71.411 200.209 71.3321C200.241 71.2532 200.257 71.1687 200.255 71.0835C200.254 70.9984 200.236 70.9144 200.201 70.8365C200.169 70.7575 200.122 70.6855 200.062 70.6247C200.003 70.564 199.932 70.5157 199.853 70.4825C199.775 70.4494 199.691 70.4321 199.606 70.4316C199.521 70.4312 199.436 70.4476 199.358 70.4799Z" fill="#425AC2"/>
<path d="M200.768 78.2847C200.683 78.2736 200.597 78.2796 200.514 78.3022C200.432 78.3249 200.355 78.3637 200.287 78.4166C200.22 78.4694 200.163 78.5352 200.121 78.6101C200.08 78.6849 200.053 78.7674 200.043 78.8526C200.024 79.0239 200.073 79.1957 200.179 79.3314C200.285 79.4671 200.44 79.556 200.61 79.5791C200.779 79.5977 200.949 79.5484 201.083 79.442C201.216 79.3356 201.302 79.1808 201.322 79.0111C201.344 78.8413 201.299 78.6694 201.195 78.5332C201.091 78.3971 200.938 78.3077 200.768 78.2847V78.2847Z" fill="#425AC2"/>
<path d="M198.092 85.7615C198.025 85.7037 197.947 85.6603 197.863 85.6339C197.779 85.6075 197.69 85.5988 197.602 85.6081C197.515 85.6175 197.43 85.6448 197.353 85.6883C197.276 85.7319 197.209 85.7907 197.155 85.8613C197.102 85.9318 197.064 86.0126 197.043 86.0985C197.022 86.1845 197.019 86.2738 197.034 86.361C197.049 86.4482 197.081 86.5314 197.13 86.6055C197.178 86.6796 197.241 86.7429 197.315 86.7917C197.452 86.8941 197.624 86.939 197.793 86.9168C197.963 86.8946 198.118 86.8071 198.224 86.6728C198.276 86.6045 198.313 86.5266 198.335 86.4437C198.356 86.3607 198.36 86.2743 198.348 86.1896C198.336 86.1048 198.307 86.0233 198.263 85.9498C198.219 85.8763 198.161 85.8123 198.092 85.7615Z" fill="#425AC2"/>
<path d="M192.082 90.8859C192.013 90.7277 191.884 90.6031 191.724 90.5389C191.564 90.4747 191.385 90.476 191.225 90.5426C191.068 90.6095 190.944 90.736 190.88 90.8944C190.816 91.0528 190.817 91.2302 190.883 91.3879C190.952 91.5461 191.081 91.6707 191.241 91.7349C191.401 91.7991 191.58 91.7978 191.739 91.7313C191.896 91.6643 192.021 91.5378 192.085 91.3794C192.149 91.2211 192.148 91.0436 192.082 90.8859V90.8859Z" fill="#425AC2"/>
<path d="M184.265 92.2992C184.28 92.1724 184.257 92.0442 184.199 91.9306C184.141 91.817 184.051 91.7231 183.94 91.6607C183.828 91.5983 183.701 91.5703 183.574 91.58C183.447 91.5897 183.326 91.6369 183.226 91.7154C183.126 91.794 183.051 91.9006 183.011 92.0217C182.971 92.1428 182.967 92.2731 183.001 92.3961C183.034 92.5192 183.103 92.6296 183.2 92.7134C183.296 92.7972 183.414 92.8506 183.54 92.8671C183.711 92.8859 183.883 92.837 184.018 92.7309C184.154 92.6248 184.242 92.4699 184.265 92.2992Z" fill="#425AC2"/>
<path d="M176.803 89.6565C176.856 89.589 176.894 89.5118 176.916 89.4293C176.939 89.3469 176.945 89.2608 176.934 89.1761C176.923 89.0914 176.895 89.0097 176.852 88.9357C176.809 88.8617 176.753 88.797 176.685 88.7452C176.616 88.694 176.539 88.6568 176.456 88.6358C176.373 88.6147 176.287 88.6102 176.203 88.6225C176.032 88.6472 175.878 88.7389 175.775 88.8772C175.672 89.0156 175.628 89.1893 175.653 89.3603C175.677 89.5312 175.769 89.6853 175.907 89.7886C175.974 89.8399 176.051 89.8773 176.133 89.8985C176.214 89.9196 176.299 89.9242 176.383 89.9119C176.467 89.8996 176.547 89.8706 176.619 89.8268C176.691 89.7829 176.754 89.725 176.803 89.6565Z" fill="#425AC2"/>
<path d="M171.689 83.569C171.768 83.5373 171.839 83.4899 171.9 83.4298C171.96 83.3697 172.007 83.2981 172.039 83.2192C172.071 83.1403 172.087 83.0558 172.086 82.9706C172.084 82.8855 172.066 82.8015 172.031 82.7236C172.003 82.6389 171.958 82.5609 171.898 82.4945C171.839 82.4281 171.766 82.3748 171.685 82.338C171.604 82.3011 171.516 82.2815 171.427 82.2803C171.338 82.2792 171.249 82.2965 171.167 82.3312C171.085 82.366 171.011 82.4173 170.95 82.4822C170.888 82.547 170.841 82.6238 170.811 82.7078C170.781 82.7918 170.768 82.8811 170.774 82.9702C170.78 83.0593 170.804 83.1463 170.845 83.2256C170.877 83.3046 170.924 83.3764 170.984 83.4367C171.044 83.4971 171.115 83.5447 171.194 83.5768C171.273 83.6088 171.357 83.6246 171.442 83.6233C171.527 83.6219 171.611 83.6035 171.689 83.569V83.569Z" fill="#425AC2"/>
<path d="M170.279 75.7631C170.364 75.7741 170.45 75.7681 170.532 75.7455C170.615 75.7228 170.692 75.684 170.76 75.6311C170.827 75.5783 170.884 75.5125 170.925 75.4376C170.967 75.3628 170.994 75.2803 171.004 75.1951C171.014 75.1083 171.007 75.0204 170.984 74.9363C170.96 74.8522 170.92 74.7736 170.867 74.7049C170.813 74.6362 170.746 74.5788 170.67 74.536C170.594 74.4932 170.51 74.4658 170.424 74.4554C170.337 74.445 170.249 74.4518 170.165 74.4754C170.081 74.4989 170.003 74.5389 169.934 74.5928C169.866 74.6468 169.809 74.7138 169.766 74.7899C169.723 74.866 169.696 74.9499 169.686 75.0366C169.675 75.1237 169.681 75.2121 169.706 75.2965C169.73 75.3809 169.771 75.4595 169.826 75.5275C169.882 75.5954 169.951 75.6513 170.028 75.6918C170.106 75.7323 170.191 75.7566 170.279 75.7631Z" fill="#425AC2"/>
<path d="M172.954 68.2999C173.057 68.3757 173.18 68.4194 173.307 68.4255C173.434 68.4316 173.56 68.3998 173.67 68.3342C173.779 68.2686 173.866 68.1721 173.921 68.0568C173.976 67.9415 173.995 67.8126 173.977 67.6862C173.959 67.5599 173.904 67.4417 173.818 67.3467C173.733 67.2517 173.622 67.1841 173.499 67.1522C173.375 67.1204 173.245 67.1259 173.125 67.168C173.005 67.21 172.899 67.2868 172.823 67.3886C172.722 67.5278 172.679 67.7009 172.704 67.8711C172.728 68.0413 172.818 68.1951 172.954 68.2999V68.2999Z" fill="#425AC2"/>
<path d="M190.088 69.707L184.979 75.9805L186.021 76.8321L191.129 70.5586L190.088 69.707Z" fill="#425AC2"/>
<path d="M173.138 75.0291L173.033 76.0273L185.12 77.3066L185.225 76.3083L173.138 75.0291Z" fill="#425AC2"/>
<path d="M182.683 78.219C182.907 78.7927 183.297 79.2862 183.803 79.6362C184.309 79.9863 184.908 80.1769 185.522 80.1837C186.137 80.1905 186.74 80.013 187.253 79.6742C187.766 79.3353 188.167 78.8505 188.403 78.2819C188.64 77.7133 188.701 77.0869 188.58 76.4831C188.459 75.8793 188.16 75.3255 187.722 74.8929C187.285 74.4604 186.728 74.1686 186.124 74.0553C185.52 73.9419 184.895 74.012 184.331 74.2566C183.598 74.5746 183.016 75.1653 182.709 75.9044C182.401 76.6435 182.392 77.4733 182.683 78.219Z" fill="#FE958E"/>
<path d="M184.502 53.6786C184.516 53.2738 184.569 52.8713 184.66 52.4767C185.055 50.6761 186.148 49.1066 187.698 48.1133C189.248 47.12 191.128 46.7844 192.925 47.1802C194.722 47.5761 196.289 48.671 197.28 50.224C198.272 51.7771 198.606 53.6612 198.211 55.4617C198.122 55.8635 197.999 56.2568 197.842 56.6373L184.502 53.6786Z" fill="#425AC2"/>
<path d="M124.246 183.817H83.157L84.2511 271.771H92.0945C92.0945 271.771 98.0397 227.523 100.267 203.088H105.712L107.346 271.771H115.256C115.256 271.771 124.483 202.784 124.259 189.484C124.358 187.596 124.354 185.704 124.246 183.817V183.817Z" fill="#A4B8EA"/>
<path d="M124.247 183.819H83.158L78.017 129.124C77.5688 124.673 81.8662 120.842 87.3368 120.842H120.055C125.526 120.842 129.836 124.673 129.375 129.124L124.247 183.819Z" fill="#0E24A5"/>
<path d="M101.744 130.907C101.864 131.218 102.073 131.488 102.344 131.682C102.615 131.876 102.937 131.987 103.269 132.001C103.602 132.015 103.932 131.932 104.218 131.761C104.505 131.59 104.735 131.339 104.881 131.039C106.714 127.288 110.734 121.675 110.734 120.473V112.403C110.734 110.567 108.005 110.725 106.397 110.725H101.124C99.5161 110.725 96.7874 112.204 96.7874 114.04V120.473C96.8401 121.661 100.294 127.156 101.744 130.907Z" fill="#E98896"/>
<path d="M97.9484 115.729C103.379 120.749 108.151 119.124 111.895 112.744C116.338 105.163 117.854 96.8947 112.422 91.9284C111.227 90.7354 109.798 89.8024 108.226 89.1876C106.654 88.5727 104.973 88.2893 103.287 88.355C101.6 88.4207 99.9458 88.8341 98.4263 89.5694C96.9068 90.3047 95.5549 91.346 94.4551 92.6284C89.4591 98.0702 92.5174 110.79 97.9484 115.729Z" fill="#FFA6AD"/>
<path d="M95.1262 135.146L65.7299 147.272C64.3836 147.824 62.9029 147.96 61.4789 147.661C60.0549 147.362 58.7531 146.642 57.7415 145.594L31.3772 118.385L36.4919 112.574L62.118 132.082C62.118 132.082 77.5148 122.836 83.6841 121.212C86.4391 120.499 93.2807 127.922 93.2807 127.922L95.1262 135.146Z" fill="#0E24A5"/>
<path d="M84.1323 271.652H92.1207V277.78H75.933C74.8653 277.78 74.4961 275.377 75.4321 274.861L84.1323 271.652Z" fill="#112256"/>
<path d="M115.361 271.652H107.385V277.78H123.534C124.601 277.78 124.971 275.377 124.035 274.861L115.361 271.652Z" fill="#112256"/>
<mask id="mask0_2_12165" style="mask-type:alpha" maskUnits="userSpaceOnUse" x="83" y="183" width="42" height="89">
<path d="M124.246 183.818H83.1572L84.2514 271.772H92.0947C92.0947 271.772 98.0399 227.524 100.268 203.089H105.712L107.347 271.772H115.256C115.256 271.772 124.483 202.785 124.259 189.485C124.359 187.597 124.354 185.705 124.246 183.818V183.818Z" fill="#A4B8EA"/>
</mask>
<g mask="url(#mask0_2_12165)">
<path d="M87.929 174.388H86.2417V281.189H87.929V174.388Z" fill="#03053F"/>
<path d="M92.5689 174.388H90.8816V281.189H92.5689V174.388Z" fill="#03053F"/>
<path d="M97.2093 174.388H95.522V281.189H97.2093V174.388Z" fill="#03053F"/>
<path d="M101.862 174.388H100.175V281.189H101.862V174.388Z" fill="#03053F"/>
<path d="M106.503 174.388H104.815V281.189H106.503V174.388Z" fill="#03053F"/>
<path d="M111.143 174.388H109.456V281.189H111.143V174.388Z" fill="#03053F"/>
<path d="M115.796 174.388H114.109V281.189H115.796V174.388Z" fill="#03053F"/>
<path d="M120.436 174.388H118.749V281.189H120.436V174.388Z" fill="#03053F"/>
</g>
<path d="M124.273 183.817H83.1443V186.736H124.273V183.817Z" fill="#FFC1C1"/>
<path d="M36.532 112.573C36.532 112.573 37.9425 105.968 36.3475 105.968C34.7524 105.968 34.2251 109.865 33.5397 110.076C32.0105 110.552 29.9541 108.372 27.6604 106.431C25.3667 104.489 21.5834 104.78 21.7416 106.787C22.0316 110.671 31.4173 118.424 31.4173 118.424L36.532 112.573Z" fill="#E98896"/>
<path d="M111.881 135.146L141.277 147.272C142.623 147.824 144.104 147.96 145.528 147.661C146.952 147.362 148.254 146.642 149.265 145.594L175.63 118.385L170.515 112.574L144.889 132.082C144.889 132.082 129.492 122.836 123.336 121.212C120.568 120.499 113.739 127.922 113.739 127.922L111.881 135.146Z" fill="#0E24A5"/>
<path d="M170.475 112.573C170.475 112.573 169.078 105.968 170.66 105.968C172.242 105.968 172.782 109.865 173.481 110.076C174.997 110.552 177.053 108.372 179.347 106.431C181.641 104.489 185.424 104.78 185.279 106.787C184.976 110.671 175.59 118.424 175.59 118.424L170.475 112.573Z" fill="#E98896"/>
<path d="M50.5842 182.761C50.5842 183.806 50.8935 184.828 51.4728 185.697C52.0522 186.565 52.8758 187.243 53.8393 187.642C54.8028 188.042 55.863 188.147 56.8858 187.943C57.9086 187.739 58.8482 187.236 59.5856 186.497C60.323 185.758 60.8252 184.817 61.0286 183.792C61.2321 182.767 61.1277 181.705 60.7286 180.739C60.3295 179.774 59.6537 178.949 58.7866 178.368C57.9194 177.788 56.9 177.478 55.8571 177.478C54.4586 177.478 53.1175 178.035 52.1286 179.025C51.1398 180.016 50.5842 181.36 50.5842 182.761V182.761ZM52.4825 182.761C52.4799 182.082 52.6786 181.416 53.0536 180.85C53.4286 180.283 53.9631 179.841 54.5891 179.579C55.2151 179.317 55.9046 179.247 56.5704 179.378C57.2361 179.509 57.848 179.835 58.3286 180.315C58.8093 180.795 59.137 181.407 59.2704 182.073C59.4037 182.74 59.3366 183.431 59.0775 184.059C58.8185 184.687 58.3792 185.225 57.8153 185.603C57.2514 185.98 56.5883 186.182 55.9098 186.182C55.0031 186.182 54.1333 185.822 53.491 185.181C52.8486 184.54 52.486 183.67 52.4825 182.761V182.761Z" fill="#FE958E"/>
<path d="M57.1622 172.736H39.5376L42.899 192.073H53.8007L57.1622 172.736Z" fill="#FE958E"/>
<path d="M140.011 188.15H178.516L183.789 164.27H145.297L140.011 188.15Z" fill="#BBBBBB"/>
<path d="M178.544 187.992H130.587V192.06H178.544V187.992Z" fill="#BBBBBB"/>
<path d="M160.128 176.831C160.128 177.333 160.277 177.823 160.555 178.24C160.833 178.657 161.228 178.982 161.691 179.174C162.153 179.366 162.662 179.416 163.153 179.319C163.644 179.221 164.095 178.979 164.449 178.625C164.803 178.27 165.044 177.818 165.141 177.326C165.239 176.834 165.189 176.324 164.997 175.861C164.806 175.398 164.482 175.001 164.065 174.723C163.649 174.444 163.16 174.295 162.659 174.295C162.327 174.295 161.998 174.361 161.691 174.488C161.384 174.616 161.104 174.803 160.869 175.038C160.634 175.274 160.448 175.553 160.321 175.861C160.194 176.169 160.128 176.498 160.128 176.831V176.831Z" fill="#4E687F"/>
<path d="M97.9484 115.729C103.379 120.749 108.151 119.124 111.895 112.744C116.338 105.163 117.854 96.8947 112.422 91.9284C111.227 90.7354 109.798 89.8024 108.226 89.1876C106.654 88.5727 104.973 88.2893 103.287 88.355C101.6 88.4207 99.9458 88.8341 98.4263 89.5694C96.9068 90.3047 95.5549 91.346 94.4551 92.6284C89.4591 98.0702 92.5174 110.79 97.9484 115.729Z" fill="#E98896"/>
<path d="M92.2534 111.068C91.1988 108.241 91.4361 102.099 94.6394 102.694C97.0122 103.13 94.8108 106.392 96.9199 106.749C99.0291 107.105 94.7185 96.9614 100.097 94.399C105.212 91.9555 110.643 93.4216 111.012 99.6823C111.328 105.322 109.245 107.435 111.012 107.435C112.778 107.435 111.012 103.552 114.175 103.909C117.339 104.266 117.352 112.032 119.106 112.032C120.859 112.032 119.817 87.3327 119.817 87.3327L94.4549 83.0532L87.7715 97.1728L92.2534 111.068Z" fill="#425AC2"/>
</svg>
