<svg width="271" height="296" viewBox="0 0 271 296" fill="none" xmlns="http://www.w3.org/2000/svg">
<path d="M232.937 265.807C230.55 265.326 224.09 260.298 218.837 246.407C215.825 238.463 207.356 197.533 218.837 194.662C230.318 191.791 228.164 212.357 228.164 231.306C228.164 242.85 232.937 265.807 232.937 265.807Z" fill="#0E24A5"/>
<path d="M238.204 267.747C232.165 267.353 233.416 206.192 232.936 191.82C232.456 177.448 229.589 123.794 237.723 115.165C245.858 106.536 254.225 114.203 254.938 125.369C255.287 130.66 253.482 169.096 252.551 180.116C251.62 191.135 250.398 216.046 249.437 231.846C248.477 247.646 245.377 268.198 238.204 267.747Z" fill="#0E24A5"/>
<path d="M249.438 268.446C249.438 268.446 262.84 241.961 266.187 221.497C272.167 184.838 273.361 149.156 265.226 149.623C257.092 150.089 256.496 186.063 256.147 201.367C255.186 241.131 245.859 266.041 245.859 266.041L249.438 268.446Z" fill="#0E24A5"/>
<path d="M248.289 267.338L247.736 267.134C247.736 267.003 252.509 253.884 255.623 245.11C261.749 227.866 262.767 204.938 262.782 204.705H263.364C263.364 204.938 262.345 227.939 256.176 245.27C253.062 254.088 248.333 267.207 248.289 267.338Z" fill="#FFC1C1"/>
<path d="M240.169 263.651H239.587C239.587 255.474 241.042 231.584 241.042 231.292H241.638C241.595 231.569 240.169 255.488 240.169 263.651Z" fill="#FFC1C1"/>
<path d="M230.638 265.56C227.555 257.921 224.917 250.11 222.737 242.166C220.997 235.085 220.267 227.792 220.569 220.506H221.165C220.855 227.728 221.575 234.958 223.304 241.976C225.479 249.895 228.108 257.682 231.176 265.298L230.638 265.56Z" fill="#FFC1C1"/>
<path d="M243.472 231.787C243.475 232.145 243.372 232.496 243.175 232.795C242.979 233.094 242.698 233.328 242.369 233.467C242.039 233.606 241.676 233.644 241.325 233.576C240.974 233.508 240.651 233.337 240.397 233.085C240.144 232.833 239.97 232.511 239.9 232.16C239.829 231.809 239.864 231.444 240 231.113C240.136 230.782 240.367 230.499 240.664 230.3C240.961 230.101 241.311 229.994 241.668 229.994C242.144 229.994 242.601 230.183 242.939 230.518C243.277 230.854 243.469 231.31 243.472 231.787Z" fill="#425AC2"/>
<path d="M222.663 220.767C222.666 221.126 222.562 221.478 222.365 221.777C222.168 222.077 221.886 222.31 221.556 222.449C221.226 222.588 220.862 222.625 220.51 222.555C220.159 222.486 219.836 222.314 219.583 222.06C219.33 221.806 219.158 221.483 219.088 221.131C219.019 220.779 219.056 220.415 219.195 220.084C219.333 219.753 219.566 219.471 219.865 219.273C220.164 219.076 220.515 218.972 220.873 218.975C221.108 218.975 221.341 219.021 221.558 219.111C221.775 219.201 221.973 219.333 222.139 219.5C222.305 219.666 222.437 219.864 222.527 220.081C222.617 220.299 222.663 220.532 222.663 220.767Z" fill="#425AC2"/>
<path d="M264.862 204.72C264.862 205.074 264.757 205.421 264.561 205.716C264.364 206.01 264.084 206.24 263.757 206.376C263.43 206.512 263.07 206.547 262.723 206.478C262.376 206.409 262.057 206.238 261.807 205.987C261.556 205.737 261.386 205.417 261.317 205.069C261.248 204.722 261.283 204.361 261.419 204.034C261.554 203.706 261.784 203.426 262.078 203.229C262.372 203.032 262.718 202.927 263.072 202.927C263.547 202.927 264.002 203.116 264.338 203.452C264.674 203.788 264.862 204.244 264.862 204.72Z" fill="#425AC2"/>
<path d="M123.396 60.1115L113.356 64.7175C113.07 64.8467 112.755 64.8984 112.443 64.8673C112.131 64.8362 111.832 64.7235 111.577 64.5405C111.322 64.3574 111.12 64.1104 110.99 63.8243C110.861 63.5382 110.808 63.2229 110.839 62.9101L111.872 51.9198C111.9 51.6054 112.011 51.3041 112.193 51.0463C112.375 50.7886 112.622 50.5835 112.908 50.4518C113.194 50.3202 113.511 50.2667 113.824 50.2967C114.138 50.3267 114.438 50.4391 114.695 50.6226L123.687 57.0214C123.943 57.2038 124.147 57.4503 124.277 57.7362C124.408 58.0222 124.461 58.3375 124.432 58.6506C124.402 58.9636 124.291 59.2634 124.109 59.5199C123.927 59.7763 123.682 59.9803 123.396 60.1115Z" fill="#425AC2"/>
<path d="M87.5998 75.708L98.2803 84.2058C98.5873 84.4447 98.8255 84.7609 98.9706 85.1222C99.1157 85.4834 99.1625 85.8768 99.1063 86.2621C99.0501 86.6474 98.8928 87.0108 98.6506 87.3154C98.4083 87.6199 98.0897 87.8546 97.7274 87.9955L85.0242 93.0243C84.6629 93.1668 84.2705 93.2114 83.8864 93.1538C83.5024 93.0962 83.1402 92.9384 82.8364 92.6961C82.5326 92.4538 82.2978 92.1356 82.1556 91.7736C82.0135 91.4116 81.9691 91.0185 82.0267 90.6338L84.0347 77.1073C84.0931 76.7231 84.2513 76.3611 84.4935 76.0575C84.7357 75.754 85.0533 75.5196 85.4144 75.3778C85.7756 75.236 86.1676 75.1919 86.5512 75.2499C86.9348 75.3078 87.2964 75.4658 87.5998 75.708Z" fill="#425AC2"/>
<path d="M102.035 62.9829L103.025 71.2184C103.067 71.458 103.043 71.7044 102.956 71.9315C102.869 72.1586 102.722 72.3577 102.531 72.5074C102.339 72.6572 102.111 72.752 101.87 72.7817C101.629 72.8113 101.384 72.7748 101.162 72.676L93.5375 69.4109C93.3189 69.3194 93.1285 69.1713 92.9857 68.9819C92.8429 68.7925 92.7529 68.5686 92.7248 68.3329C92.6967 68.0972 92.7315 67.8583 92.8257 67.6405C92.9199 67.4228 93.0702 67.2339 93.2611 67.0934L99.8964 62.1229C100.081 61.9809 100.299 61.8895 100.53 61.8577C100.76 61.826 100.995 61.8549 101.211 61.9417C101.427 62.0285 101.616 62.1702 101.761 62.3528C101.906 62.5354 102 62.7525 102.035 62.9829Z" fill="#425AC2"/>
<path d="M116.95 86.1441L107.361 80.6781C107.089 80.5207 106.863 80.2944 106.706 80.0219C106.549 79.7494 106.466 79.4404 106.466 79.1258C106.466 78.8111 106.549 78.5021 106.706 78.2296C106.863 77.9571 107.089 77.7308 107.361 77.5734L116.877 71.9908C117.147 71.8278 117.455 71.7397 117.77 71.7355C118.086 71.7313 118.396 71.8113 118.67 71.9671C118.944 72.1229 119.172 72.349 119.33 72.6221C119.488 72.8953 119.57 73.2056 119.569 73.5213L119.642 84.5699C119.646 84.8875 119.567 85.2006 119.411 85.4772C119.255 85.7538 119.028 85.9839 118.755 86.1441C118.481 86.3042 118.169 86.3886 117.852 86.3886C117.535 86.3886 117.224 86.3042 116.95 86.1441Z" fill="#425AC2"/>
<path d="M109.048 102.907L107.812 100.677C103.228 92.3974 98.8918 84.643 105.367 73.9443C111.842 63.2455 116.426 57.109 116.47 57.0361L116.95 57.3859C116.95 57.4588 112.322 63.6682 105.876 74.2504C99.5757 84.5993 103.825 92.2663 108.335 100.4C108.743 101.128 109.15 101.872 109.558 102.63L109.048 102.907Z" fill="#0E24A5"/>
<path d="M99.3565 67.0766L98.8667 67.3916L104.425 76.0635L104.914 75.7486L99.3565 67.0766Z" fill="#0E24A5"/>
<path d="M92.3292 84.8414L92.2363 85.417L102.392 87.0611L102.485 86.4855L92.3292 84.8414Z" fill="#0E24A5"/>
<path d="M113.486 78.6406L103.214 79.2051L103.246 79.7872L113.518 79.2228L113.486 78.6406Z" fill="#0E24A5"/>
<path d="M91.442 242.326L101.846 240.999C102.142 240.961 102.443 241.002 102.719 241.117C102.995 241.232 103.236 241.418 103.417 241.655C103.598 241.893 103.714 242.175 103.752 242.471C103.791 242.768 103.751 243.07 103.636 243.346L99.576 253.039C99.4584 253.311 99.2718 253.548 99.0349 253.726C98.7979 253.904 98.5187 254.017 98.2248 254.054C97.9309 254.091 97.6325 254.05 97.3591 253.936C97.0857 253.822 96.8468 253.638 96.6658 253.404L90.3215 245.052C90.1405 244.815 90.0248 244.534 89.9858 244.238C89.9469 243.943 89.9861 243.642 90.0995 243.366C90.2129 243.09 90.3965 242.849 90.6321 242.666C90.8676 242.484 91.1469 242.366 91.442 242.326Z" fill="#425AC2"/>
<path d="M128.344 238.332L121.068 227.59C120.863 227.293 120.737 226.949 120.703 226.59C120.669 226.231 120.728 225.869 120.874 225.54C121.02 225.21 121.249 224.924 121.538 224.708C121.827 224.493 122.166 224.356 122.523 224.31L135.445 223.363C135.812 223.337 136.181 223.408 136.512 223.569C136.844 223.73 137.128 223.976 137.335 224.281C137.543 224.586 137.667 224.941 137.695 225.309C137.723 225.677 137.655 226.046 137.496 226.38L131.851 238.041C131.683 238.347 131.442 238.606 131.15 238.797C130.857 238.987 130.523 239.101 130.175 239.13C129.828 239.159 129.479 239.101 129.159 238.962C128.84 238.823 128.559 238.606 128.344 238.332Z" fill="#425AC2"/>
<path d="M111.624 245.795L113.08 238.04C113.117 237.818 113.213 237.61 113.358 237.437C113.502 237.264 113.69 237.133 113.902 237.058C114.114 236.982 114.343 236.964 114.564 237.006C114.785 237.048 114.991 237.149 115.16 237.297L121.155 242.413C121.327 242.559 121.457 242.748 121.532 242.961C121.607 243.174 121.625 243.403 121.583 243.624C121.542 243.846 121.443 244.053 121.296 244.224C121.15 244.395 120.961 244.525 120.748 244.599L113.327 247.238C113.114 247.317 112.884 247.337 112.661 247.298C112.437 247.259 112.228 247.161 112.055 247.014C111.882 246.867 111.751 246.677 111.675 246.463C111.599 246.248 111.582 246.018 111.624 245.795Z" fill="#425AC2"/>
<path d="M104.655 220.549L111.799 228.231C112.004 228.448 112.149 228.715 112.217 229.006C112.285 229.298 112.275 229.602 112.188 229.888C112.101 230.174 111.939 230.431 111.72 230.634C111.501 230.837 111.232 230.979 110.941 231.044L100.755 233.405C100.464 233.471 100.161 233.46 99.8762 233.373C99.5912 233.285 99.3342 233.124 99.1309 232.905C98.9276 232.687 98.7851 232.419 98.7177 232.128C98.6503 231.837 98.6603 231.533 98.7468 231.248L101.817 221.205C101.905 220.924 102.065 220.67 102.281 220.47C102.497 220.269 102.761 220.129 103.048 220.063C103.335 219.997 103.634 220.007 103.916 220.092C104.198 220.177 104.452 220.335 104.655 220.549Z" fill="#425AC2"/>
<path d="M96.8539 247.093L96.5193 246.612C96.5193 246.612 102.485 242.239 111.332 234.47C120.179 226.701 118.273 218.713 116.483 210.07L116.003 207.694L116.585 207.592L117.065 209.953C118.884 218.699 120.601 227.094 111.711 234.907C102.82 242.72 96.9267 247.049 96.8539 247.093Z" fill="#0E24A5"/>
<path d="M113.176 233.284L112.601 233.442L115.189 242.888L115.765 242.729L113.176 233.284Z" fill="#0E24A5"/>
<path d="M118.106 223.836L117.846 224.357L126.594 228.733L126.854 228.211L118.106 223.836Z" fill="#0E24A5"/>
<path d="M105.787 227.802L105.644 228.367L115.12 230.781L115.264 230.216L105.787 227.802Z" fill="#0E24A5"/>
<path d="M225.53 260.298H253.265L248.434 295.922H230.361L225.53 260.298Z" fill="#FFC1C1"/>
<path d="M86.508 191.251L100.026 251.29L89.2873 289.698H80.4111L85.1547 251.188C85.1547 251.188 77.9519 232.778 74.3433 223.085L68.2608 224.426L70.2835 252.529L63.1679 289.698H54.2917L55.4122 252.879C55.4122 252.879 45.823 206.527 45.954 200.697C45.7066 199.778 86.508 191.251 86.508 191.251Z" fill="#FE958E"/>
<path d="M89.8994 200.056L47.9775 208.174L20.3304 177.565C19.5454 176.917 18.9048 176.111 18.4499 175.2C17.995 174.289 17.7359 173.292 17.6893 172.275C17.6427 171.257 17.8096 170.24 18.1793 169.291C18.549 168.342 19.1132 167.481 19.8356 166.764L37.9082 148.559C38.6192 147.831 39.4747 147.26 40.4194 146.884C41.3641 146.507 42.3771 146.333 43.393 146.373C44.4089 146.413 45.4053 146.666 46.3177 147.115C47.2302 147.564 48.0385 148.2 48.6906 148.981L89.8994 200.056Z" fill="#0E24A5"/>
<path d="M32.4802 158.296L28.9443 161.837C28.651 162.101 28.3088 162.304 27.9373 162.434C27.5657 162.565 27.1721 162.621 26.7788 162.6C26.3856 162.578 26.0005 162.479 25.6455 162.308C25.2905 162.137 24.9726 161.898 24.7099 161.604L20.3446 157.231C19.7521 156.705 19.392 155.964 19.3429 155.172C19.2938 154.38 19.5598 153.601 20.0826 153.004L23.604 149.448C24.1979 148.92 24.9761 148.648 25.7691 148.692C26.5622 148.735 27.3058 149.091 27.8384 149.681L32.2037 154.054C32.7992 154.581 33.1624 155.323 33.2142 156.118C33.266 156.912 33.0022 157.695 32.4802 158.296Z" fill="#E98896"/>
<path d="M18.0315 169.869C16.9547 172.565 19.0937 207.402 21.0727 209.938C25.0306 214.967 56.592 217.124 56.592 217.124V209.443L33.3102 201.178L29.9052 172.245C29.9052 172.245 19.6612 165.802 18.0315 169.869Z" fill="#0E24A5"/>
<path d="M29.5987 143.414C33.0037 149.637 28.26 152.946 22.0466 156.342C20.5662 157.191 18.9318 157.735 17.239 157.943C15.5462 158.151 13.829 158.019 12.1876 157.555C10.5463 157.091 9.01375 156.304 7.6796 155.239C6.34546 154.175 5.23646 152.855 4.41741 151.357C3.59835 149.858 3.0857 148.211 2.90936 146.512C2.73302 144.813 2.89656 143.095 3.39042 141.46C3.88427 139.825 4.69852 138.305 5.78562 136.988C6.87272 135.672 8.21087 134.586 9.72182 133.793C15.9352 130.383 26.1937 137.175 29.5987 143.414Z" fill="#FFB3B6"/>
<path d="M7.19033 146.474C7.19033 146.474 21.9016 134.813 24.2588 129.289C26.4561 124.027 25.1028 120.004 19.326 119.931C11.9049 119.844 7.93244 127.686 6.37547 136.519C5.85163 139.478 7.19033 146.474 7.19033 146.474Z" fill="#7F4D4E"/>
<path d="M9.32989 143.195C9.32989 143.195 12.5457 146.387 12.1092 146.839C11.3359 147.223 10.6937 147.828 10.2637 148.578C9.83378 149.328 9.63541 150.189 9.69367 151.051C10.0283 153.821 12.8949 153.967 14.6702 152.917C16.4454 151.868 19.2101 156.561 15.1213 159.331C11.0324 162.1 1.74874 155.278 0.410034 150.41C-0.928671 145.542 1.25404 136.461 3.45126 134.683C5.64849 132.904 11.4107 136.65 11.4107 136.65L9.32989 143.195Z" fill="#7F4D4E"/>
<path d="M34.6924 141.518C35.9472 142.776 36.8014 144.379 37.1471 146.123C37.4928 147.867 37.3144 149.675 36.6347 151.318C35.9549 152.961 34.8041 154.365 33.3279 155.353C31.8516 156.34 30.1162 156.868 28.3408 156.868C26.5655 156.868 24.8301 156.34 23.3538 155.353C21.8776 154.365 20.7269 152.961 20.0471 151.318C19.3673 149.675 19.189 147.867 19.5347 146.123C19.8804 144.379 20.7346 142.776 21.9893 141.518C22.8231 140.682 23.8132 140.019 24.9031 139.566C25.9929 139.114 27.1611 138.881 28.3408 138.881C29.5206 138.881 30.6888 139.114 31.7787 139.566C32.8685 140.019 33.8586 140.682 34.6924 141.518Z" fill="#7F4D4E"/>
<path d="M25.6171 142.668L22.9596 145.345C22.4156 145.893 22.4181 146.779 22.9651 147.324L23.3985 147.756C23.9455 148.301 24.83 148.298 25.374 147.75L28.0314 145.073C28.5754 144.525 28.573 143.639 28.026 143.094L27.5926 142.663C27.0455 142.118 26.1611 142.12 25.6171 142.668Z" fill="#FFB3B6"/>
<path d="M104.901 293.473L101.656 292.045L137.365 210.667L140.61 212.081L104.901 293.473Z" fill="#CCCCCC"/>
<path d="M106.357 292.525C106.369 293.171 106.189 293.805 105.84 294.348C105.492 294.891 104.99 295.319 104.399 295.577C103.808 295.834 103.154 295.91 102.519 295.796C101.885 295.681 101.299 295.381 100.835 294.932C100.371 294.484 100.05 293.908 99.9134 293.277C99.7763 292.646 99.8291 291.988 100.065 291.388C100.301 290.787 100.71 290.269 101.239 289.901C101.768 289.533 102.395 289.33 103.04 289.318C103.903 289.306 104.736 289.637 105.357 290.237C105.979 290.838 106.338 291.66 106.357 292.525Z" fill="#FFC1C1"/>
<path d="M181.687 293.473L184.932 292.045L148.933 209.997L145.688 211.425L181.687 293.473Z" fill="#CCCCCC"/>
<path d="M180.233 292.526C180.222 293.171 180.402 293.806 180.75 294.349C181.099 294.892 181.6 295.32 182.191 295.577C182.782 295.835 183.436 295.911 184.071 295.797C184.705 295.682 185.291 295.381 185.755 294.933C186.219 294.485 186.54 293.909 186.677 293.278C186.814 292.647 186.761 291.989 186.525 291.388C186.289 290.787 185.881 290.27 185.351 289.902C184.822 289.533 184.195 289.331 183.551 289.319C182.688 289.311 181.857 289.643 181.237 290.242C180.616 290.842 180.256 291.662 180.233 292.526Z" fill="#FFC1C1"/>
<path d="M133.974 89.2484C134.6 82.6454 139.94 80.7505 142.138 77.9228C144.335 75.0951 144.859 66.6993 147.478 62.0787C150.272 57.1375 154.753 49.7038 167.151 51.0739C177.104 52.1671 179.825 59.9798 180.145 65.9705C180.465 71.9613 185.791 77.6313 189.56 79.497C193.329 81.3628 195.22 88.2426 194.9 91.4493C194.58 94.656 133.974 89.2484 133.974 89.2484Z" fill="#0E24A5"/>
<path d="M148.787 127.627H182.182L177.584 110.573L186.314 83.258C186.678 79.6432 183.186 76.5239 178.748 76.5239H152.177C147.812 76.5239 144.247 79.6432 144.625 83.258L154.083 110.573L148.787 127.627Z" fill="#FE958E"/>
<path d="M148.714 89.9195C146.008 89.6134 141.992 84.6868 136.084 74.2504C130.176 63.814 129.667 61.7879 129.769 60.2866C129.871 58.7853 134.134 37.6938 134.134 37.6938H140.551L138.645 60.5927C138.645 60.5927 146.532 73.5507 151.552 76.6263C154.346 78.4045 148.714 89.9195 148.714 89.9195Z" fill="#FE958E"/>
<path d="M181.848 89.9195C184.555 89.6134 188.556 84.6868 194.479 74.2504C200.401 63.814 200.896 61.7879 200.794 60.2866C200.692 58.7853 196.429 37.6938 196.429 37.6938H190.012L191.918 60.5927C191.918 60.5927 184.002 73.0697 179.768 76.8012C177.338 78.9584 181.848 89.9195 181.848 89.9195Z" fill="#FE958E"/>
<path d="M165.317 84.4682C172.711 84.4682 178.704 78.4644 178.704 71.0584C178.704 63.6523 172.711 57.6484 165.317 57.6484C157.924 57.6484 151.93 63.6523 151.93 71.0584C151.93 78.4644 157.924 84.4682 165.317 84.4682Z" fill="#E98896"/>
<path d="M233.199 87.646H53.3902C46.2941 87.646 40.5415 93.4083 40.5415 100.517V202.082C40.5415 209.19 46.2941 214.953 53.3902 214.953H233.199C240.295 214.953 246.047 209.19 246.047 202.082V100.517C246.047 93.4083 240.295 87.646 233.199 87.646Z" fill="#FEE2E3"/>
<path d="M74.4898 98.4609H56.6647C54.1091 98.4609 52.0374 100.536 52.0374 103.096V120.952C52.0374 123.512 54.1091 125.587 56.6647 125.587H74.4898C77.0454 125.587 79.1171 123.512 79.1171 120.952V103.096C79.1171 100.536 77.0454 98.4609 74.4898 98.4609Z" fill="#FFC1C1"/>
<path d="M113.69 98.4609H95.8646C93.309 98.4609 91.2373 100.536 91.2373 103.096V120.952C91.2373 123.512 93.309 125.587 95.8646 125.587H113.69C116.245 125.587 118.317 123.512 118.317 120.952V103.096C118.317 100.536 116.245 98.4609 113.69 98.4609Z" fill="#FFC1C1"/>
<path d="M152.877 98.4609H135.052C132.496 98.4609 130.425 100.536 130.425 103.096V120.952C130.425 123.512 132.496 125.587 135.052 125.587H152.877C155.433 125.587 157.504 123.512 157.504 120.952V103.096C157.504 100.536 155.433 98.4609 152.877 98.4609Z" fill="#FFC1C1"/>
<path d="M192.077 98.4609H174.252C171.696 98.4609 169.625 100.536 169.625 103.096V120.952C169.625 123.512 171.696 125.587 174.252 125.587H192.077C194.632 125.587 196.704 123.512 196.704 120.952V103.096C196.704 100.536 194.632 98.4609 192.077 98.4609Z" fill="#FFC1C1"/>
<path d="M231.278 98.4609H213.453C210.898 98.4609 208.826 100.536 208.826 103.096V120.952C208.826 123.512 210.898 125.587 213.453 125.587H231.278C233.834 125.587 235.906 123.512 235.906 120.952V103.096C235.906 100.536 233.834 98.4609 231.278 98.4609Z" fill="#FFC1C1"/>
<path d="M74.4898 137.058H56.6647C54.1091 137.058 52.0374 139.133 52.0374 141.693V159.549C52.0374 162.109 54.1091 164.184 56.6647 164.184H74.4898C77.0454 164.184 79.1171 162.109 79.1171 159.549V141.693C79.1171 139.133 77.0454 137.058 74.4898 137.058Z" fill="#FFC1C1"/>
<path d="M113.69 137.058H95.8646C93.309 137.058 91.2373 139.133 91.2373 141.693V159.549C91.2373 162.109 93.309 164.184 95.8646 164.184H113.69C116.245 164.184 118.317 162.109 118.317 159.549V141.693C118.317 139.133 116.245 137.058 113.69 137.058Z" fill="#FFC1C1"/>
<path d="M152.877 137.058H135.052C132.496 137.058 130.425 139.133 130.425 141.693V159.549C130.425 162.109 132.496 164.184 135.052 164.184H152.877C155.433 164.184 157.504 162.109 157.504 159.549V141.693C157.504 139.133 155.433 137.058 152.877 137.058Z" fill="#FFC1C1"/>
<path d="M231.278 137.058H213.453C210.898 137.058 208.826 139.133 208.826 141.693V159.549C208.826 162.109 210.898 164.184 213.453 164.184H231.278C233.834 164.184 235.906 162.109 235.906 159.549V141.693C235.906 139.133 233.834 137.058 231.278 137.058Z" fill="#FFC1C1"/>
<path d="M74.4898 175.655H56.6647C54.1091 175.655 52.0374 177.731 52.0374 180.29V198.146C52.0374 200.706 54.1091 202.781 56.6647 202.781H74.4898C77.0454 202.781 79.1171 200.706 79.1171 198.146V180.29C79.1171 177.731 77.0454 175.655 74.4898 175.655Z" fill="#FFC1C1"/>
<path d="M113.69 175.655H95.8646C93.309 175.655 91.2373 177.731 91.2373 180.29V198.146C91.2373 200.706 93.309 202.781 95.8646 202.781H113.69C116.245 202.781 118.317 200.706 118.317 198.146V180.29C118.317 177.731 116.245 175.655 113.69 175.655Z" fill="#FFC1C1"/>
<path d="M152.877 175.655H135.052C132.496 175.655 130.425 177.731 130.425 180.29V198.146C130.425 200.706 132.496 202.781 135.052 202.781H152.877C155.433 202.781 157.504 200.706 157.504 198.146V180.29C157.504 177.731 155.433 175.655 152.877 175.655Z" fill="#FFC1C1"/>
<path d="M192.077 175.655H174.252C171.696 175.655 169.625 177.731 169.625 180.29V198.146C169.625 200.706 171.696 202.781 174.252 202.781H192.077C194.632 202.781 196.704 200.706 196.704 198.146V180.29C196.704 177.731 194.632 175.655 192.077 175.655Z" fill="#FFC1C1"/>
<path d="M231.278 175.655H213.453C210.898 175.655 208.826 177.731 208.826 180.29V198.146C208.826 200.706 210.898 202.781 213.453 202.781H231.278C233.834 202.781 235.906 200.706 235.906 198.146V180.29C235.906 177.731 233.834 175.655 231.278 175.655Z" fill="#FFC1C1"/>
<path d="M89.2875 289.61H80.324V295.44H95.8501C96.8832 295.44 97.2324 293.137 96.3302 292.627L89.2875 289.61Z" fill="#425AC2"/>
<path d="M63.1689 289.61H54.22V295.44H69.7461C70.7646 295.44 71.1284 293.137 70.2262 292.627L63.1689 289.61Z" fill="#425AC2"/>
<path d="M200.371 156.415C202.394 157.1 207.647 161.196 209.975 165.773C211.736 169.198 220.874 187.637 220.423 190.552C219.972 193.467 192.776 211.323 192.776 211.323L188.716 202.286C188.716 202.286 207.632 189.648 206.963 187.841C206.294 186.033 196.777 166.924 196.777 166.924L200.371 156.415Z" fill="white"/>
<path d="M183.245 219.864H166.919L167.807 290.529H174.107C174.107 290.529 178.88 254.978 180.684 235.329H182.969C183.274 230.169 183.274 225.039 183.245 219.864Z" fill="#FFB3B6"/>
<path d="M186.548 218.101L171.531 225.389C173.831 230.024 176.057 234.644 178.036 239.411L179.913 238.507L205.188 287.57L210.863 284.815C210.863 284.815 193.402 231.7 188.527 222.138C187.941 220.757 187.28 219.41 186.548 218.101Z" fill="#FFB3B6"/>
<path d="M195.351 197.213H171.996L166.03 159.578C165.71 156.503 168.664 153.864 172.433 153.864H196.733C200.502 153.864 203.47 156.503 203.15 159.578L195.351 197.213Z" fill="white"/>
<path d="M167.254 290.426H174.398V295.907H159.92C158.974 295.907 158.639 293.764 159.469 293.298L167.254 290.426Z" fill="#0E24A5"/>
<path d="M204.489 287.803L210.906 284.669L213.307 289.61L200.284 295.936C199.425 296.359 198.203 294.566 198.741 293.794L204.489 287.803Z" fill="#0E24A5"/>
<path d="M171.997 197.213H195.279C195.279 197.213 201.361 204.341 205.639 225.564C209.306 243.696 213.075 271.157 213.075 271.157H157.664C157.664 271.157 161.651 230.782 164.765 217.664C167.966 204.122 171.997 197.213 171.997 197.213Z" fill="#425AC2"/>
<mask id="mask0_2_12285" style="mask-type:alpha" maskUnits="userSpaceOnUse" x="166" y="153" width="38" height="45">
<path d="M195.351 197.213H171.996L166.03 159.578C165.71 156.503 168.664 153.864 172.433 153.864H196.733C200.502 153.864 203.47 156.503 203.15 159.578L195.351 197.213Z" fill="white"/>
</mask>
<g mask="url(#mask0_2_12285)">
<path d="M208.986 190.464H161.666V193.176H208.986V190.464Z" fill="#03053F"/>
<path d="M208.986 183.862H161.666V186.573H208.986V183.862Z" fill="#03053F"/>
<path d="M208.986 177.244H161.666V179.955H208.986V177.244Z" fill="#03053F"/>
<path d="M208.986 170.626H161.666V173.338H208.986V170.626Z" fill="#03053F"/>
<path d="M208.986 164.009H161.666V166.72H208.986V164.009Z" fill="#03053F"/>
<path d="M208.986 157.406H161.666V160.117H208.986V157.406Z" fill="#03053F"/>
</g>
<path d="M181.891 156.43H186.14C186.813 156.388 187.442 156.081 187.89 155.576C188.337 155.07 188.566 154.407 188.526 153.733V148.486C188.566 147.811 188.337 147.149 187.89 146.643C187.442 146.137 186.813 145.83 186.14 145.789H181.891C181.216 145.83 180.586 146.137 180.136 146.642C179.686 147.147 179.454 147.81 179.49 148.486V153.733C179.454 154.409 179.686 155.071 180.136 155.577C180.586 156.082 181.216 156.388 181.891 156.43Z" fill="#E98896"/>
<path d="M174.645 145.774C176.362 151.605 181.193 150.687 186.97 148.967C188.344 148.556 189.625 147.878 190.739 146.972C191.852 146.065 192.776 144.948 193.459 143.684C194.141 142.42 194.568 141.034 194.715 139.604C194.863 138.174 194.728 136.73 194.318 135.353C193.908 133.975 193.231 132.693 192.327 131.577C191.422 130.462 190.306 129.536 189.044 128.853C187.782 128.169 186.398 127.741 184.971 127.594C183.544 127.446 182.102 127.581 180.727 127.992C175.009 129.712 172.942 139.988 174.645 145.774Z" fill="#FFCACE"/>
<path d="M181.149 126.475C174.484 129.041 173.975 132.481 173.626 134.623C173.335 136.533 174.644 135.294 177.773 135.717C179.621 135.979 181.411 135.979 181.571 137.174C181.964 139.871 181.571 161.953 182.953 161.953C184.336 161.953 203.776 163.134 204.227 161.327C204.678 159.519 201.011 134.07 193.75 128.997C187.842 124.901 184.074 125.339 181.149 126.475Z" fill="#FE958E"/>
<path d="M173.947 154.054C173.947 154.054 155.758 153.281 153.444 152.698C151.131 152.115 135.706 129.755 135.706 129.755L130.861 132.19C130.861 132.19 144.815 158.426 147.726 159.578C150.636 160.729 167.864 167.288 167.864 167.288C167.864 167.288 171.007 167.289 173.045 162.085C175.184 156.663 173.947 154.054 173.947 154.054Z" fill="white"/>
<mask id="mask1_2_12285" style="mask-type:alpha" maskUnits="userSpaceOnUse" x="130" y="98" width="28" height="28">
<path d="M152.877 98.4609H135.052C132.496 98.4609 130.425 100.536 130.425 103.096V120.952C130.425 123.512 132.496 125.587 135.052 125.587H152.877C155.433 125.587 157.504 123.512 157.504 120.952V103.096C157.504 100.536 155.433 98.4609 152.877 98.4609Z" fill="#FFC1C1"/>
</mask>
<g mask="url(#mask1_2_12285)">
<path d="M118.186 84.0175L115.995 86.2129L169.777 140.086L171.968 137.891L118.186 84.0175Z" fill="#425AC2"/>
<path d="M169.752 83.9405L115.97 137.814L118.162 140.009L171.943 86.1358L169.752 83.9405Z" fill="#425AC2"/>
</g>
<mask id="mask2_2_12285" style="mask-type:alpha" maskUnits="userSpaceOnUse" x="52" y="137" width="28" height="28">
<path d="M74.4898 137.058H56.6647C54.1091 137.058 52.0374 139.133 52.0374 141.693V159.549C52.0374 162.109 54.1091 164.184 56.6647 164.184H74.4898C77.0454 164.184 79.1171 162.109 79.1171 159.549V141.693C79.1171 139.133 77.0454 137.058 74.4898 137.058Z" fill="#FFC1C1"/>
</mask>
<g mask="url(#mask2_2_12285)">
<path d="M39.7773 122.62L37.5857 124.815L91.3674 178.688L93.559 176.493L39.7773 122.62Z" fill="#425AC2"/>
<path d="M91.3674 122.62L37.5857 176.493L39.7773 178.689L93.559 124.815L91.3674 122.62Z" fill="#425AC2"/>
</g>
<mask id="mask3_2_12285" style="mask-type:alpha" maskUnits="userSpaceOnUse" x="91" y="175" width="28" height="28">
<path d="M113.69 175.655H95.8646C93.309 175.655 91.2373 177.731 91.2373 180.29V198.146C91.2373 200.706 93.309 202.781 95.8646 202.781H113.69C116.245 202.781 118.317 200.706 118.317 198.146V180.29C118.317 177.731 116.245 175.655 113.69 175.655Z" fill="#FFC1C1"/>
</mask>
<g mask="url(#mask3_2_12285)">
<path d="M78.9829 161.194L76.7913 163.39L130.573 217.263L132.765 215.068L78.9829 161.194Z" fill="#425AC2"/>
<path d="M130.573 161.18L76.7913 215.053L78.9829 217.249L132.765 163.375L130.573 161.18Z" fill="#425AC2"/>
</g>
<path d="M169.988 67.0205H159.933V79.5995H169.988V67.0205Z" fill="#E98896"/>
<path d="M168.519 70.9709C164.299 74.5128 161.374 71.3498 157.838 67.1228C156.997 66.1179 156.361 64.9567 155.967 63.7056C155.573 62.4545 155.429 61.138 155.543 59.8312C155.658 58.5243 156.028 57.2529 156.632 56.0893C157.237 54.9257 158.065 53.8929 159.068 53.0497C160.071 52.2065 161.23 51.5695 162.479 51.1751C163.728 50.7807 165.042 50.6366 166.347 50.7509C167.652 50.8653 168.921 51.2359 170.083 51.8417C171.244 52.4474 172.275 53.2764 173.117 54.2814C176.653 58.5375 172.739 67.4581 168.519 70.9709Z" fill="#FFB3B6"/>
<path d="M163.266 52.5903C161.083 52.5903 156.907 46.0603 160.719 42.3871C164.313 38.9763 170.119 42.1102 170.338 45.8416C170.731 52.2259 168.009 52.5903 163.266 52.5903Z" fill="#0E24A5"/>
<path d="M152.6 63.2453C154.056 63.2453 158.683 62.1084 159.731 58.96C160.778 55.8116 161.055 55.3451 164.27 55.3451C168.447 55.3451 169.64 55.3452 170.251 57.6336C171.182 61.0881 176.071 66.2042 179.2 65.5775C182.328 64.9507 181.077 54.8495 176.057 52.5465C171.037 50.2435 157.213 46.4538 154.914 50.4476C152.615 54.4415 151.771 63.2453 151.771 63.2453H152.6Z" fill="#0E24A5"/>
<path d="M138.018 114.978L130.25 122.76L133.131 125.646L140.899 117.864L138.018 114.978Z" fill="white"/>
<path d="M135.706 129.712C135.706 129.712 137.161 122.861 135.415 122.526C134.294 122.292 133.96 125.339 132.373 124.77C131.69 124.537 133.378 118.342 132.141 118.226C130.904 118.109 128.314 124.216 128.532 125.907C129.129 128.078 129.908 130.194 130.86 132.233L135.706 129.712Z" fill="#FFB3B6"/>
<path d="M138.006 114.976L140.887 117.862L142.051 114.859L141.28 113.984L138.006 114.976Z" fill="#FEE2E3"/>
<path d="M141.28 113.984L142.051 114.844C142.051 114.844 143.157 113.795 142.735 113.387C142.313 112.978 141.28 113.984 141.28 113.984Z" fill="#0E24A5"/>
<mask id="mask4_2_12285" style="mask-type:alpha" maskUnits="userSpaceOnUse" x="157" y="197" width="57" height="75">
<path d="M171.997 197.213H195.279C195.279 197.213 201.361 204.341 205.639 225.564C209.306 243.696 213.075 271.157 213.075 271.157H157.664C157.664 271.157 161.651 230.782 164.765 217.664C167.966 204.122 171.997 197.213 171.997 197.213Z" fill="#425AC2"/>
</mask>
<g mask="url(#mask4_2_12285)">
<path d="M163.484 208.32H175.678C175.678 208.32 176.755 224.252 167.064 227.357C159.497 229.791 157.737 225.564 157.737 225.564L163.484 208.32Z" fill="#0E24A5"/>
</g>
<path d="M56.592 217.124C56.592 217.124 67.8837 216.221 68.9605 214.603C70.0373 212.985 66.9961 210.478 62.8635 210.827C61.5882 210.988 60.3583 211.405 59.248 212.054C58.1378 212.702 57.1699 213.57 56.4028 214.603L56.592 217.124Z" fill="#FFB3B6"/>
<path d="M134.164 37.665H140.581C140.581 37.665 142.705 28.0303 141.541 27.4618C140.843 27.1411 139.839 30.5228 139.388 31.3244C138.937 32.1261 135.444 30.9746 134.542 32.2281C133.64 33.4817 134.164 37.665 134.164 37.665Z" fill="#FFB3B6"/>
<path d="M196.53 37.665H190.113C190.113 37.665 187.988 28.0303 189.153 27.4618C189.851 27.1411 190.855 30.5228 191.306 31.3244C191.757 32.1261 195.249 30.9746 196.152 32.2281C197.054 33.4817 196.53 37.665 196.53 37.665Z" fill="#FFB3B6"/>
<path d="M270.363 263.301H218.706V266.172H270.363V263.301Z" fill="#FEE2E3"/>
<path d="M168.14 9.75133C168.14 12.273 165.07 18.8176 165.07 18.8176C165.07 18.8176 161.33 12.273 161.33 9.75133C161.33 7.22968 165.07 0 165.07 0C165.07 0 168.14 7.24426 168.14 9.75133Z" fill="#FFC1C1"/>
<path d="M134.717 16.0191C136.172 18.0888 137.394 25.2165 137.394 25.2165C137.394 25.2165 130.585 22.0098 129.129 19.94C127.674 17.8702 126.612 9.73682 126.612 9.73682C126.612 9.73682 133.262 13.9493 134.717 16.0191Z" fill="#FFC1C1"/>
<path d="M114.694 39.676C117.052 40.5943 121.97 45.8562 121.97 45.8562C121.97 45.8562 114.52 46.9495 112.177 46.0312C109.834 45.1129 104.494 38.9764 104.494 38.9764C104.494 38.9764 112.337 38.7577 114.694 39.676Z" fill="#FFC1C1"/>
<path d="M194.478 16.0191C193.023 18.0888 191.801 25.2165 191.801 25.2165C191.801 25.2165 198.611 22.0098 200.066 19.94C201.521 17.8702 202.583 9.73682 202.583 9.73682C202.583 9.73682 195.933 13.9493 194.478 16.0191Z" fill="#FFC1C1"/>
<path d="M214.5 39.676C212.157 40.5943 207.225 45.8562 207.225 45.8562C207.225 45.8562 214.675 46.9495 217.032 46.0312C219.389 45.1129 224.715 38.9764 224.715 38.9764C224.715 38.9764 216.857 38.7577 214.5 39.676Z" fill="#FFC1C1"/>
</svg>
