<svg width="140" height="180" viewBox="0 0 140 180" fill="none" xmlns="http://www.w3.org/2000/svg">
<path d="M103.29 61.722V79.8945C103.29 84.4281 101.681 88.3046 98.4613 91.5238C95.2421 94.7431 91.3656 96.3527 86.832 96.3527H39.2863C34.7527 96.3527 30.8762 94.7431 27.657 91.5238C24.4377 88.3046 22.8281 84.4281 22.8281 79.8945V32.3488C22.8281 27.8152 24.4377 23.9387 27.657 20.7195C30.8762 17.5002 34.7527 15.8906 39.2863 15.8906H86.832C89.2322 15.8906 91.4609 16.3668 93.5181 17.3193C94.0896 17.586 94.4325 18.0241 94.5468 18.6336C94.6611 19.2813 94.4896 19.8337 94.0325 20.2909L91.2323 23.0911C90.8513 23.472 90.4132 23.6625 89.9179 23.6625C89.8036 23.6625 89.6322 23.6244 89.4036 23.5482C88.5274 23.3196 87.6702 23.2054 86.832 23.2054H39.2863C36.7718 23.2054 34.6193 24.1006 32.8287 25.8912C31.0381 27.6818 30.1429 29.8343 30.1429 32.3488V79.8945C30.1429 82.409 31.0381 84.5615 32.8287 86.3521C34.6193 88.1427 36.7718 89.0379 39.2863 89.0379H86.832C89.3465 89.0379 91.499 88.1427 93.2896 86.3521C95.0801 84.5615 95.9754 82.409 95.9754 79.8945V65.3794C95.9754 64.8841 96.1469 64.465 96.4898 64.1221L100.147 60.4648C100.528 60.0838 100.966 59.8933 101.461 59.8933C101.69 59.8933 101.919 59.9505 102.147 60.0647C102.909 60.3695 103.29 60.9219 103.29 61.722ZM116.491 33.7774L69.9739 80.2946C69.0595 81.2089 67.9737 81.6661 66.7165 81.6661C65.4593 81.6661 64.3735 81.2089 63.4592 80.2946L38.8862 55.7216C37.9719 54.8073 37.5147 53.7215 37.5147 52.4643C37.5147 51.2071 37.9719 50.1213 38.8862 49.2069L45.1723 42.9208C46.0867 42.0065 47.1725 41.5493 48.4297 41.5493C49.6869 41.5493 50.7727 42.0065 51.687 42.9208L66.7165 57.9503L103.69 20.9766C104.605 20.0623 105.69 19.6051 106.948 19.6051C108.205 19.6051 109.291 20.0623 110.205 20.9766L116.491 27.2627C117.405 28.1771 117.862 29.2629 117.862 30.5201C117.862 31.7773 117.405 32.8631 116.491 33.7774Z" fill="#8685E7"/>
<path d="M14.56 166.66C15.6 166.66 16.5267 166.487 17.34 166.14C18.1667 165.793 18.86 165.307 19.42 164.68C19.9933 164.053 20.4267 163.293 20.72 162.4C21.0267 161.507 21.18 160.507 21.18 159.4V142.08H26.56V159.4C26.56 161.12 26.28 162.713 25.72 164.18C25.1733 165.633 24.38 166.893 23.34 167.96C22.3 169.013 21.04 169.84 19.56 170.44C18.08 171.027 16.4133 171.32 14.56 171.32C12.7067 171.32 11.04 171.027 9.56 170.44C8.08 169.84 6.82 169.013 5.78 167.96C4.75333 166.893 3.96 165.633 3.4 164.18C2.85333 162.713 2.58 161.12 2.58 159.4V142.08H7.96V159.38C7.96 160.487 8.10667 161.487 8.4 162.38C8.70667 163.273 9.14 164.04 9.7 164.68C10.26 165.307 10.9467 165.793 11.76 166.14C12.5867 166.487 13.52 166.66 14.56 166.66ZM31.7416 177.7V150.48H34.7616C35.0816 150.48 35.3549 150.553 35.5816 150.7C35.8082 150.847 35.9549 151.073 36.0216 151.38L36.4216 153.28C37.2482 152.333 38.1949 151.567 39.2616 150.98C40.3416 150.393 41.6016 150.1 43.0416 150.1C44.1616 150.1 45.1816 150.333 46.1016 150.8C47.0349 151.267 47.8349 151.947 48.5016 152.84C49.1816 153.72 49.7016 154.813 50.0616 156.12C50.4349 157.413 50.6216 158.9 50.6216 160.58C50.6216 162.113 50.4149 163.533 50.0016 164.84C49.5882 166.147 48.9949 167.28 48.2216 168.24C47.4616 169.2 46.5349 169.953 45.4416 170.5C44.3616 171.033 43.1482 171.3 41.8016 171.3C40.6416 171.3 39.6549 171.127 38.8416 170.78C38.0416 170.42 37.3216 169.927 36.6816 169.3V177.7H31.7416ZM41.3416 154C40.3149 154 39.4349 154.22 38.7016 154.66C37.9816 155.087 37.3082 155.693 36.6816 156.48V165.68C37.2416 166.373 37.8482 166.86 38.5016 167.14C39.1682 167.407 39.8816 167.54 40.6416 167.54C41.3882 167.54 42.0616 167.4 42.6616 167.12C43.2749 166.84 43.7882 166.413 44.2016 165.84C44.6282 165.267 44.9549 164.547 45.1816 163.68C45.4082 162.8 45.5216 161.767 45.5216 160.58C45.5216 159.38 45.4216 158.367 45.2216 157.54C45.0349 156.7 44.7616 156.02 44.4016 155.5C44.0416 154.98 43.6016 154.6 43.0816 154.36C42.5749 154.12 41.9949 154 41.3416 154ZM75.0188 142.08V146.5H66.3188V171H60.9388V146.5H52.1988V142.08H75.0188ZM82.8453 150.16C84.3786 150.16 85.7653 150.407 87.0053 150.9C88.2586 151.393 89.3253 152.093 90.2053 153C91.0853 153.907 91.7653 155.013 92.2453 156.32C92.7253 157.627 92.9653 159.087 92.9653 160.7C92.9653 162.327 92.7253 163.793 92.2453 165.1C91.7653 166.407 91.0853 167.52 90.2053 168.44C89.3253 169.36 88.2586 170.067 87.0053 170.56C85.7653 171.053 84.3786 171.3 82.8453 171.3C81.312 171.3 79.9186 171.053 78.6653 170.56C77.412 170.067 76.3386 169.36 75.4453 168.44C74.5653 167.52 73.8786 166.407 73.3853 165.1C72.9053 163.793 72.6653 162.327 72.6653 160.7C72.6653 159.087 72.9053 157.627 73.3853 156.32C73.8786 155.013 74.5653 153.907 75.4453 153C76.3386 152.093 77.412 151.393 78.6653 150.9C79.9186 150.407 81.312 150.16 82.8453 150.16ZM82.8453 167.5C84.552 167.5 85.812 166.927 86.6253 165.78C87.452 164.633 87.8653 162.953 87.8653 160.74C87.8653 158.527 87.452 156.84 86.6253 155.68C85.812 154.52 84.552 153.94 82.8453 153.94C81.112 153.94 79.832 154.527 79.0053 155.7C78.1786 156.86 77.7653 158.54 77.7653 160.74C77.7653 162.94 78.1786 164.62 79.0053 165.78C79.832 166.927 81.112 167.5 82.8453 167.5ZM111.26 171C110.62 171 110.2 170.7 110 170.1L109.6 168.12C109.173 168.6 108.726 169.033 108.26 169.42C107.793 169.807 107.286 170.14 106.74 170.42C106.206 170.7 105.626 170.913 105 171.06C104.386 171.22 103.72 171.3 103 171.3C101.88 171.3 100.853 171.067 99.9197 170.6C98.9864 170.133 98.1797 169.46 97.4997 168.58C96.833 167.687 96.313 166.587 95.9397 165.28C95.5797 163.973 95.3997 162.48 95.3997 160.8C95.3997 159.28 95.6064 157.867 96.0197 156.56C96.433 155.253 97.0264 154.12 97.7997 153.16C98.573 152.2 99.4997 151.453 100.58 150.92C101.66 150.373 102.873 150.1 104.22 150.1C105.366 150.1 106.346 150.287 107.16 150.66C107.973 151.02 108.7 151.507 109.34 152.12V141.28H114.28V171H111.26ZM104.68 167.38C105.706 167.38 106.58 167.167 107.3 166.74C108.02 166.313 108.7 165.707 109.34 164.92V155.72C108.78 155.04 108.166 154.56 107.5 154.28C106.846 154 106.14 153.86 105.38 153.86C104.633 153.86 103.953 154 103.34 154.28C102.74 154.56 102.226 154.987 101.8 155.56C101.386 156.12 101.066 156.84 100.84 157.72C100.613 158.587 100.5 159.613 100.5 160.8C100.5 162 100.593 163.02 100.78 163.86C100.98 164.687 101.26 165.367 101.62 165.9C101.98 166.42 102.42 166.8 102.94 167.04C103.46 167.267 104.04 167.38 104.68 167.38ZM128.392 150.16C129.926 150.16 131.312 150.407 132.552 150.9C133.806 151.393 134.872 152.093 135.752 153C136.632 153.907 137.312 155.013 137.792 156.32C138.272 157.627 138.512 159.087 138.512 160.7C138.512 162.327 138.272 163.793 137.792 165.1C137.312 166.407 136.632 167.52 135.752 168.44C134.872 169.36 133.806 170.067 132.552 170.56C131.312 171.053 129.926 171.3 128.392 171.3C126.859 171.3 125.466 171.053 124.212 170.56C122.959 170.067 121.886 169.36 120.992 168.44C120.112 167.52 119.426 166.407 118.932 165.1C118.452 163.793 118.212 162.327 118.212 160.7C118.212 159.087 118.452 157.627 118.932 156.32C119.426 155.013 120.112 153.907 120.992 153C121.886 152.093 122.959 151.393 124.212 150.9C125.466 150.407 126.859 150.16 128.392 150.16ZM128.392 167.5C130.099 167.5 131.359 166.927 132.172 165.78C132.999 164.633 133.412 162.953 133.412 160.74C133.412 158.527 132.999 156.84 132.172 155.68C131.359 154.52 130.099 153.94 128.392 153.94C126.659 153.94 125.379 154.527 124.552 155.7C123.726 156.86 123.312 158.54 123.312 160.74C123.312 162.94 123.726 164.62 124.552 165.78C125.379 166.927 126.659 167.5 128.392 167.5Z" fill="white"/>
</svg>
